<svg width="51" height="51" viewBox="0 0 51 51" fill="none" xmlns="http://www.w3.org/2000/svg">
<g clip-path="url(#clip0_839_413)">
<path d="M50.9505 14.9941C50.8309 12.2842 50.3927 10.4214 49.7649 8.80699C49.1173 7.09347 48.121 5.55939 46.8159 4.28404C45.5404 2.98887 43.9962 1.98241 42.3025 1.34499C40.6789 0.717328 38.8256 0.278961 36.1158 0.159605C33.3857 0.0298886 32.519 0 25.5948 0C18.6706 0 17.804 0.0298886 15.084 0.149443C12.3742 0.268998 10.5112 0.707564 8.89733 1.33483C7.18332 1.98241 5.64923 2.9787 4.37388 4.28404C3.07871 5.55929 2.07276 7.10354 1.43483 8.79723C0.807171 10.4214 0.368904 12.2743 0.249449 14.984C0.119832 17.7141 0.0898438 18.5808 0.0898438 25.505C0.0898438 32.4292 0.119832 33.296 0.239287 36.0158C0.358842 38.7257 0.797408 40.5886 1.42517 42.203C2.07276 43.9165 3.07871 45.4506 4.37388 46.7259C5.64923 48.0211 7.19348 49.0275 8.88717 49.665C10.5111 50.2926 12.364 50.731 15.0743 50.8504C17.7938 50.9703 18.661 50.9998 25.5852 50.9998C32.5094 50.9998 33.376 50.9703 36.096 50.8504C38.8058 50.7309 40.6688 50.2927 42.2827 49.665C43.9777 49.0096 45.5171 48.0073 46.8022 46.7223C48.0873 45.4373 49.0897 43.898 49.7452 42.203C50.3724 40.5789 50.8111 38.7256 50.9305 36.0158C51.0501 33.296 51.08 32.4292 51.08 25.505C51.08 18.5808 51.0698 17.714 50.9505 14.9941ZM46.3578 35.8166C46.248 38.3073 45.8296 39.6523 45.4809 40.5489C44.6239 42.7707 42.8606 44.5341 40.6388 45.3911C39.7421 45.7398 38.3875 46.1581 35.9064 46.2674C33.2164 46.3874 32.4097 46.4169 25.605 46.4169C18.8002 46.4169 17.9834 46.3874 15.3031 46.2674C12.8123 46.1581 11.4674 45.7398 10.5707 45.3911C9.46512 44.9824 8.45877 44.3348 7.64181 43.488C6.79496 42.6611 6.14738 41.6648 5.7387 40.5591C5.39 39.6624 4.97166 38.3073 4.86236 35.8267C4.74241 33.1367 4.71292 32.3296 4.71292 25.5248C4.71292 18.7201 4.74241 17.9032 4.86236 15.2234C4.97166 12.7327 5.39 11.3877 5.7387 10.491C6.14738 9.38494 6.79496 8.37879 7.65197 7.56163C8.47849 6.71478 9.47478 6.0672 10.5809 5.65902C11.4775 5.31032 12.8327 4.89188 15.3132 4.78218C18.0032 4.66263 18.8104 4.63274 25.6147 4.63274C32.4296 4.63274 33.2363 4.66263 35.9166 4.78218C38.4073 4.89197 39.7523 5.31022 40.6489 5.65892C41.7545 6.0672 42.761 6.71478 43.5778 7.56163C44.4247 8.38865 45.0723 9.38494 45.4809 10.491C45.8296 11.3877 46.248 12.7423 46.3577 15.2234C46.4772 17.9134 46.5071 18.7201 46.5071 25.5248C46.5071 32.3296 46.4773 33.1266 46.3578 35.8166Z" fill="white"/>
<path d="M25.5953 12.4046C18.3625 12.4046 12.4941 18.2725 12.4941 25.5058C12.4941 32.739 18.3625 38.607 25.5953 38.607C32.8284 38.607 38.6965 32.739 38.6965 25.5058C38.6965 18.2725 32.8284 12.4046 25.5953 12.4046ZM25.5953 34.0041C20.903 34.0041 17.0968 30.1985 17.0968 25.5058C17.0968 20.8131 20.903 17.0075 25.5952 17.0075C30.288 17.0075 34.0937 20.8131 34.0937 25.5058C34.0937 30.1985 30.2879 34.0041 25.5953 34.0041ZM42.2734 11.8865C42.2734 13.5756 40.9038 14.9451 39.2144 14.9451C37.5254 14.9451 36.1559 13.5756 36.1559 11.8865C36.1559 10.1972 37.5254 8.82812 39.2145 8.82812C40.9038 8.82812 42.2734 10.1971 42.2734 11.8865Z" fill="white"/>
</g>
<defs>
<clipPath id="clip0_839_413">
<rect width="51" height="51" fill="white"/>
</clipPath>
</defs>
</svg>
