<svg width="50" height="42" viewBox="0 0 50 42" fill="none" xmlns="http://www.w3.org/2000/svg">
<path d="M1.57961 20.7062L12.8496 24.5334L39.6089 8.17442C39.9974 7.93817 40.3946 8.46492 40.0604 8.77292L19.8024 27.4192L19.0499 37.8579C19.0376 38.0328 19.0787 38.2072 19.1679 38.3582C19.257 38.5091 19.3899 38.6294 19.549 38.703C19.7081 38.7767 19.8858 38.8002 20.0585 38.7706C20.2313 38.7409 20.391 38.6594 20.5164 38.5369L26.7534 32.4032L38.1564 41.0342C39.3849 41.9652 41.1646 41.3089 41.4954 39.8039L49.4351 3.75392C49.8884 1.69767 47.8724 -0.0383316 45.9071 0.714168L1.52361 17.7102C0.130611 18.2439 0.169111 20.2267 1.57961 20.7062Z" fill="white"/>
</svg>
