<svg width="51" height="51" viewBox="0 0 51 51" fill="none" xmlns="http://www.w3.org/2000/svg">
<g clip-path="url(#clip0_839_422)">
<path d="M25.5 51C11.4189 51 0 39.5811 0 25.5C0 11.4189 11.4189 0 25.5 0C39.5811 0 51 11.4189 51 25.5C51 39.5811 39.5811 51 25.5 51Z" fill="white"/>
<path d="M41.7686 17.5699C42.0032 16.7794 41.7686 16.2031 40.6415 16.2031H36.9236C35.9801 16.2031 35.5415 16.7029 35.3069 17.2537C35.3069 17.2537 33.4148 21.8641 30.7373 24.8578C29.8703 25.7248 29.4776 26.0002 29.0033 26.0002C28.7687 26.0002 28.427 25.7248 28.427 24.9343V17.5699C28.427 16.6264 28.1516 16.2031 27.3662 16.2031H21.5216C20.93 16.2031 20.573 16.6417 20.573 17.0599C20.573 17.9575 21.9143 18.1615 22.052 20.686V26.1634C22.052 27.3619 21.8327 27.5812 21.3635 27.5812C20.1038 27.5812 17.0387 22.9504 15.218 17.6515C14.861 16.6213 14.504 16.2082 13.5554 16.2082H9.8375C8.7767 16.2082 8.5625 16.708 8.5625 17.2588C8.5625 18.2431 9.8222 23.1289 14.4326 29.5906C17.5079 34.0021 21.8327 36.394 25.775 36.394C28.1363 36.394 28.4321 35.8636 28.4321 34.9456V31.6102C28.4321 30.5494 28.6565 30.3352 29.4062 30.3352C29.957 30.3352 30.9056 30.6106 33.1088 32.7373C35.6282 35.2567 36.0464 36.3889 37.4642 36.3889H41.1821C42.2429 36.3889 42.7733 35.8585 42.4673 34.8079C42.1307 33.7624 40.9271 32.2477 39.3308 30.4474C38.4638 29.4223 37.1633 28.3207 36.7706 27.7699C36.2198 27.061 36.3779 26.7448 36.7706 26.1175C36.7655 26.1175 41.2943 19.7374 41.7686 17.5699Z" fill="#020604"/>
</g>
<defs>
<clipPath id="clip0_839_422">
<rect width="51" height="51" fill="white"/>
</clipPath>
</defs>
</svg>
