<svg id="Слой_1" data-name="Слой 1" xmlns="http://www.w3.org/2000/svg" viewBox="0 0 206.74 67.99">
    <defs>
        <style>.cls-1{fill:#262a2e;}</style>
    </defs>
    <title>Монтажная область 1</title>
    <path class="cls-1"
          d="M162.22,36.49a12.8,12.8,0,0,0-.76-4.65,9.17,9.17,0,0,0-2.07-3.25,8.47,8.47,0,0,0-3-1.92,10.35,10.35,0,0,0-3.65-.64,9.85,9.85,0,0,0-3.77.7,8.73,8.73,0,0,0-3,2,9.63,9.63,0,0,0-2,3.25,12.14,12.14,0,0,0-.72,4.31,12.35,12.35,0,0,0,.62,3.91,10.07,10.07,0,0,0,1.88,3.41,9.09,9.09,0,0,0,3.21,2.4,10.71,10.71,0,0,0,4.59.91,12,12,0,0,0,4.73-.91A10.93,10.93,0,0,0,162,43.47l-.75-.75-.79-.8a8.67,8.67,0,0,1-4.7,3.27,7.23,7.23,0,0,1-1.52.16,9,9,0,0,1-2.38-.34,6.12,6.12,0,0,1-2.34-1.22,6.66,6.66,0,0,1-1.79-2.45,9.43,9.43,0,0,1-.73-4h15.2ZM147,35.73a14.53,14.53,0,0,1,.34-3.11,8.9,8.9,0,0,1,1-2.66,5.57,5.57,0,0,1,1.77-1.87,4.64,4.64,0,0,1,2.55-.7,5.07,5.07,0,0,1,4.4,2.23,10.41,10.41,0,0,1,1.57,6.11Z"/>
    <path class="cls-1"
          d="M50.09,36.49a12.8,12.8,0,0,0-.76-4.65,9.17,9.17,0,0,0-2.07-3.25,8.47,8.47,0,0,0-3-1.92A10.35,10.35,0,0,0,40.59,26a9.88,9.88,0,0,0-3.77.7,8.73,8.73,0,0,0-3,2,9.63,9.63,0,0,0-2,3.25,12.14,12.14,0,0,0-.72,4.31,12.35,12.35,0,0,0,.62,3.91,10.07,10.07,0,0,0,1.88,3.41,9.09,9.09,0,0,0,3.21,2.4,10.71,10.71,0,0,0,4.59.91,12,12,0,0,0,4.73-.91,10.93,10.93,0,0,0,3.77-2.58l-.75-.75-.78-.8a8.69,8.69,0,0,1-4.71,3.27,7.16,7.16,0,0,1-1.52.16A9,9,0,0,1,39.75,45a6.27,6.27,0,0,1-2.34-1.22,6.66,6.66,0,0,1-1.79-2.45,9.44,9.44,0,0,1-.72-4H50.09ZM34.9,35.73a14.52,14.52,0,0,1,.33-3.11,9.17,9.17,0,0,1,1-2.66A5.57,5.57,0,0,1,38,28.09a4.64,4.64,0,0,1,2.55-.7A5.07,5.07,0,0,1,45,29.62a10.41,10.41,0,0,1,1.57,6.11Z"/>
    <path class="cls-1"
          d="M55.69,46.48v-20H58l1.13,3.25h.16a5.56,5.56,0,0,1,1.22-1.89,6.06,6.06,0,0,1,3.27-1.66A8.25,8.25,0,0,1,65.19,26a6.36,6.36,0,0,1,2.27.36,5.76,5.76,0,0,1,1.62.92,5.62,5.62,0,0,1,1.13,1.22,6.57,6.57,0,0,1,.68,1.31h.28a6.61,6.61,0,0,1,1.42-2,6.47,6.47,0,0,1,1.71-1.16A6.1,6.1,0,0,1,76,26.11a9.56,9.56,0,0,1,1.4-.12,7.25,7.25,0,0,1,3.35.66,5.13,5.13,0,0,1,1.92,1.64,5.49,5.49,0,0,1,.87,2.13,12.41,12.41,0,0,1,.2,2.06v14H80.31V33.65a19,19,0,0,0-.14-2.41,4.68,4.68,0,0,0-.56-1.76,2.7,2.7,0,0,0-1.18-1.09,4.76,4.76,0,0,0-2-.36,4.32,4.32,0,0,0-2.67.76,5.24,5.24,0,0,0-1.5,1.85,7.55,7.55,0,0,0-.68,2.3,16.07,16.07,0,0,0-.16,2.11V46.48H68V33.65c0-.49,0-1-.06-1.69a5.74,5.74,0,0,0-.42-1.84,3.7,3.7,0,0,0-1.1-1.49,3.29,3.29,0,0,0-2.11-.6,4.7,4.7,0,0,0-2.93.82,5.22,5.22,0,0,0-1.54,2,7.84,7.84,0,0,0-.62,2.32c-.08.79-.12,1.43-.12,1.91V46.48Z"/>
    <path class="cls-1"
          d="M119.7,36.49a11.19,11.19,0,0,1-.72,4,10.17,10.17,0,0,1-2.06,3.35,10,10,0,0,1-3.25,2.29,11.29,11.29,0,0,1-8.62,0,9.79,9.79,0,0,1-3.29-2.3,10.22,10.22,0,0,1-2.08-3.35,10.66,10.66,0,0,1-.75-3.95,10.79,10.79,0,0,1,.75-4,10.33,10.33,0,0,1,2.08-3.35,9.79,9.79,0,0,1,3.29-2.3A10.65,10.65,0,0,1,109.4,26a10.34,10.34,0,0,1,4.27.86,10,10,0,0,1,3.25,2.3A10.27,10.27,0,0,1,119,32.5,11.19,11.19,0,0,1,119.7,36.49Zm-3.81,0a14.28,14.28,0,0,0-.6-4.55,7.09,7.09,0,0,0-1.56-2.71,5,5,0,0,0-2.13-1.3,8.18,8.18,0,0,0-2.24-.34,8.31,8.31,0,0,0-2.25.34,5.14,5.14,0,0,0-2.14,1.3,7.14,7.14,0,0,0-1.61,2.71,13.94,13.94,0,0,0-.62,4.55,13.76,13.76,0,0,0,.62,4.51A7,7,0,0,0,105,43.71a5,5,0,0,0,2.14,1.3,7.93,7.93,0,0,0,2.25.34A7.82,7.82,0,0,0,111.6,45a4.89,4.89,0,0,0,2.13-1.3A6.94,6.94,0,0,0,115.29,41,14.09,14.09,0,0,0,115.89,36.49Z"/>
    <polygon class="cls-1"
             points="140.66 26.43 140.59 26.43 138.77 26.43 138.7 26.43 132.21 42.51 131.97 42.51 125.27 26.43 121.74 26.43 130.08 46.48 132.49 46.48 132.51 46.41 132.56 46.48 140.66 26.43"/>
    <path class="cls-1" d="M91.53,18.41H87.92v1.08c1.48,0,2.48.48,2.48,3h0v24h3.41V18.41Z"/>
    <path class="cls-1" d="M180.43,27.74l0-.06-.06-.06Z"/>
    <path class="cls-1"
          d="M178.39,29.84l1-3.09a4.62,4.62,0,0,0-1-.47,5,5,0,0,0-1-.26,4.72,4.72,0,0,0-.69,0,4.84,4.84,0,0,0-3.12,1,6.82,6.82,0,0,0-2.09,2.84h-.23l-1.15-3.36h-2.26v20h3.41V35a9.35,9.35,0,0,1,.35-3,6.13,6.13,0,0,1,1.12-2,4.19,4.19,0,0,1,1.52-1.11,3.78,3.78,0,0,1,1.55-.3,3.24,3.24,0,0,1,1.93.64A4.38,4.38,0,0,1,178.39,29.84Z"/>
    <path class="cls-1"
          d="M196.66,38a6.65,6.65,0,0,0-2.26-1.87A14.87,14.87,0,0,0,191.47,35c-1.05-.3-2-.6-2.94-.92a8.11,8.11,0,0,1-2.26-1.17,2.26,2.26,0,0,1-.9-1.92,3.42,3.42,0,0,1,.2-1.1,3,3,0,0,1,.68-1.09,4,4,0,0,1,1.28-.84,5.25,5.25,0,0,1,2-.34,5.83,5.83,0,0,1,2.07.34,5.36,5.36,0,0,1,1.48.84,3.35,3.35,0,0,1,.88,1.11,2.6,2.6,0,0,1,.28,1.12h2.28a3.86,3.86,0,0,0-.56-2,5.14,5.14,0,0,0-1.54-1.58,8,8,0,0,0-2.28-1,9.63,9.63,0,0,0-2.78-.38,9.27,9.27,0,0,0-2.62.36,6.16,6.16,0,0,0-2.12,1.08,5.32,5.32,0,0,0-1.42,1.79,5.6,5.6,0,0,0-.51,2.46,4.81,4.81,0,0,0,.88,3,6.42,6.42,0,0,0,2.19,1.8,14.78,14.78,0,0,0,2.86,1.11c1,.28,2,.58,2.86.92a7.17,7.17,0,0,1,2.2,1.26,2.63,2.63,0,0,1,.87,2.09,4.4,4.4,0,0,1-.17,1.16,2.82,2.82,0,0,1-.67,1.1,3.71,3.71,0,0,1-1.32.84,5.66,5.66,0,0,1-2.13.34,6.38,6.38,0,0,1-2.7-.5l-.16-.08A3.86,3.86,0,0,1,185.25,41h-3.41a4.91,4.91,0,0,0,.53,2.19,5.42,5.42,0,0,0,1.58,1.9,8.39,8.39,0,0,0,2.6,1.35,11.79,11.79,0,0,0,3.59.5,8.22,8.22,0,0,0,5.56-1.63,5.38,5.38,0,0,0,1.86-4.27A4.88,4.88,0,0,0,196.66,38Z"/>
    <path class="cls-1"
          d="M25.78,47.41a6.23,6.23,0,0,0-4.34-1.84h-7a6.11,6.11,0,0,1-2.49-.2l-.11-.09a.58.58,0,0,1-.06-.77,10.77,10.77,0,0,1,1.54-1.83l-1.47-.78-.47.45h0A8.83,8.83,0,0,0,10.11,44l0,0a2.76,2.76,0,0,0-.39.81,2.47,2.47,0,0,0-.11.58h0a2.83,2.83,0,0,0,0,.29A3,3,0,0,0,10.75,48a5.81,5.81,0,0,0,3.68.95h7.05a4.5,4.5,0,0,1,3.05.92l.21.21c.08.09.17.19.25.3l.15.23c.08.15.16.31.23.48l.06.17a3.59,3.59,0,0,1,.08.35,4.5,4.5,0,0,1-1,3.4,5.48,5.48,0,0,1-1.07,1.09l-.2.14h0a8.35,8.35,0,0,1-4.1,1.28h.31a10.24,10.24,0,0,1-1.49,0c-3.37,0-4.6-1.46-5.05-2.36a4.68,4.68,0,0,1-.37-1.86V52.24H9.18v1.15h0a4.63,4.63,0,0,0,1.23,3l.18.19.26.25.36.3.15.12a9.22,9.22,0,0,0,3,1.36,15.68,15.68,0,0,0,4.3.52,10.64,10.64,0,0,0,3.61-.58A8.41,8.41,0,0,0,25,57a7.18,7.18,0,0,0,1.78-2.36,6.72,6.72,0,0,0,.64-2.93A5.67,5.67,0,0,0,25.78,47.41Z"/>
    <path class="cls-1"
          d="M26,34a8.11,8.11,0,0,1-.57,3,7.45,7.45,0,0,1-1.62,2.54,7.65,7.65,0,0,1-2.55,1.72,8.34,8.34,0,0,1-3.35.64,8.72,8.72,0,0,1-3.42-.65,7.88,7.88,0,0,1-2.58-1.74A8.12,8.12,0,0,1,9.7,34a7.91,7.91,0,0,1,.59-3,7.79,7.79,0,0,1,1.63-2.54A7.88,7.88,0,0,1,14.5,26.7a8.55,8.55,0,0,1,3.42-.65,8.17,8.17,0,0,1,3.35.65,7.85,7.85,0,0,1,2.55,1.74A7.45,7.45,0,0,1,25.44,31,8.09,8.09,0,0,1,26,34Zm-3.82,0a11.28,11.28,0,0,0-.4-3.27,5.13,5.13,0,0,0-1-1.94,3.22,3.22,0,0,0-1.4-.94,4.65,4.65,0,0,0-2.95,0,3.33,3.33,0,0,0-1.42.94,5.14,5.14,0,0,0-1.05,1.94A10.59,10.59,0,0,0,13.53,34a10.5,10.5,0,0,0,.41,3.25A5.14,5.14,0,0,0,15,39.18a3.33,3.33,0,0,0,1.42.94,4.65,4.65,0,0,0,2.95,0,3.22,3.22,0,0,0,1.4-.94,5.13,5.13,0,0,0,1-1.94A11.18,11.18,0,0,0,22.19,34Z"/>
    <path class="cls-1"
          d="M28.44,27.45l.88-3.8c-4-.13-6.09,4.28-6.09,4.28L24.17,29C25.24,27.57,27.25,27.41,28.44,27.45Z"/>
</svg>
