<?xml version="1.0" encoding="utf-8"?>
<!-- Generator: Adobe Illustrator 16.2.0, SVG Export Plug-In . SVG Version: 6.00 Build 0)  -->
<!DOCTYPE svg PUBLIC "-//W3C//DTD SVG 1.1//EN" "http://www.w3.org/Graphics/SVG/1.1/DTD/svg11.dtd">
<svg version="1.1" id="Слой_1" xmlns="http://www.w3.org/2000/svg" xmlns:xlink="http://www.w3.org/1999/xlink" x="0px" y="0px"
	 width="22px" height="22px" viewBox="0 0 22 22" enable-background="new 0 0 22 22" xml:space="preserve">
<path fill="#33" d="M17.396,13.629c-0.451-0.47-0.996-0.721-1.572-0.721c-0.572,0-1.121,0.246-1.59,0.715l-1.47,1.463
	c-0.12-0.064-0.241-0.125-0.358-0.186c-0.167-0.084-0.325-0.162-0.46-0.246c-1.376-0.873-2.627-2.01-3.827-3.482
	c-0.582-0.733-0.972-1.351-1.256-1.978c0.381-0.348,0.735-0.71,1.079-1.059c0.13-0.13,0.26-0.265,0.391-0.395
	c0.976-0.975,0.976-2.238,0-3.213L7.064,3.26C6.92,3.116,6.771,2.967,6.631,2.819C6.353,2.531,6.06,2.233,5.757,1.955
	C5.306,1.509,4.767,1.272,4.199,1.272c-0.567,0-1.116,0.237-1.581,0.683C2.614,1.959,2.614,1.959,2.609,1.964L1.028,3.557
	C0.433,4.151,0.094,4.875,0.019,5.716c-0.111,1.356,0.289,2.619,0.595,3.446c0.753,2.029,1.878,3.91,3.557,5.924
	c2.037,2.429,4.487,4.347,7.287,5.697c1.069,0.506,2.497,1.105,4.092,1.207c0.098,0.006,0.2,0.01,0.293,0.01
	c1.074,0,1.977-0.385,2.683-1.151c0.006-0.009,0.015-0.015,0.02-0.023c0.242-0.292,0.521-0.558,0.813-0.841
	c0.2-0.189,0.404-0.39,0.604-0.599c0.461-0.478,0.702-1.035,0.702-1.606c0-0.576-0.247-1.129-0.716-1.593L17.396,13.629z
	 M19.061,18.518C19.057,18.518,19.057,18.522,19.061,18.518c-0.182,0.195-0.367,0.371-0.566,0.566
	c-0.303,0.288-0.609,0.59-0.898,0.929c-0.469,0.501-1.022,0.738-1.748,0.738c-0.07,0-0.145,0-0.214-0.005
	c-1.381-0.088-2.665-0.627-3.627-1.086c-2.632-1.272-4.943-3.078-6.863-5.368c-1.586-1.908-2.646-3.673-3.348-5.567
	c-0.433-1.156-0.59-2.057-0.521-2.907C1.321,5.275,1.53,4.825,1.917,4.439l1.585-1.583c0.228-0.214,0.47-0.33,0.707-0.33
	c0.293,0,0.53,0.176,0.679,0.325C4.892,2.856,4.897,2.86,4.901,2.865C5.185,3.13,5.455,3.404,5.739,3.696
	c0.144,0.148,0.293,0.297,0.441,0.45l1.27,1.268c0.493,0.492,0.493,0.947,0,1.439c-0.135,0.135-0.265,0.27-0.4,0.399
	C6.659,7.652,6.287,8.024,5.883,8.386C5.874,8.396,5.864,8.4,5.859,8.409c-0.4,0.399-0.325,0.79-0.242,1.054
	c0.005,0.014,0.009,0.028,0.014,0.042c0.33,0.799,0.795,1.551,1.502,2.447l0.004,0.005c1.284,1.578,2.637,2.809,4.129,3.752
	c0.19,0.12,0.386,0.218,0.572,0.311c0.167,0.084,0.325,0.162,0.46,0.246c0.019,0.01,0.037,0.023,0.056,0.033
	c0.158,0.078,0.307,0.115,0.461,0.115c0.385,0,0.627-0.241,0.706-0.32l1.591-1.588c0.158-0.158,0.408-0.348,0.701-0.348
	c0.289,0,0.525,0.181,0.67,0.338c0.005,0.005,0.005,0.005,0.01,0.01l2.563,2.559C19.535,17.538,19.535,18.025,19.061,18.518z"/>
<path fill="#33" d="M11.891,5.233c1.219,0.204,2.325,0.78,3.209,1.662c0.883,0.882,1.455,1.987,1.664,3.204
	c0.051,0.306,0.316,0.52,0.619,0.52c0.037,0,0.069-0.005,0.106-0.009c0.345-0.056,0.571-0.381,0.517-0.725
	c-0.252-1.472-0.949-2.814-2.014-3.877c-1.064-1.063-2.408-1.76-3.883-2.011c-0.344-0.056-0.665,0.172-0.726,0.511
	S11.547,5.177,11.891,5.233z"/>
<path fill="#33" d="M21.99,9.705c-0.414-2.424-1.559-4.629-3.315-6.384c-1.758-1.755-3.967-2.897-6.394-3.311
	c-0.34-0.061-0.66,0.171-0.721,0.511c-0.057,0.343,0.172,0.664,0.516,0.724c2.167,0.367,4.143,1.393,5.715,2.958
	c1.572,1.569,2.595,3.542,2.963,5.707c0.051,0.306,0.315,0.52,0.617,0.52c0.037,0,0.07-0.005,0.107-0.009
	C21.818,10.369,22.051,10.044,21.99,9.705z"/>
</svg>
