<?xml version="1.0" encoding="UTF-8"?>
<svg id="_Слой_1" data-name="Слой_1" xmlns="http://www.w3.org/2000/svg" version="1.1" viewBox="0 0 534.62 104.19">
  <!-- Generator: Adobe Illustrator 29.1.0, SVG Export Plug-In . SVG Version: 2.1.0 Build 142)  -->
  <defs>
    <style>
      .st0 {
        fill: #fff;
      }

      .st1 {
        fill: #b1824c;
      }
    </style>
  </defs>
  <g>
    <path class="st1" d="M69.91,58.4c-1.09-1.92-2.52-3.47-4.27-4.63-1.75-1.17-3.68-2.2-5.8-3.1-2.12-.9-4.23-1.75-6.35-2.55-2.12-.8-4.05-1.67-5.8-2.59-1.75-.92-3.17-2.13-4.27-3.61-1.09-1.48-1.64-3.2-1.64-5.14,0-2.68,1.07-4.99,3.21-6.93,2.14-1.95,5.18-2.92,9.12-2.92,4.67,0,7.94,1.2,9.81,3.61.94,1.2,1.53,2.46,1.8,3.77-1.63.06-3.09.93-3.79,2.4-1,2.13,0,4.73,2.44,5.58,2.21.77,4.39-.39,5.39-2.52.68-1.44.38-3.79-1.21-6.25-.66-1.22-1.61-2.37-2.85-3.44-2.82-2.43-6.69-3.65-11.6-3.65-4.18,0-7.77,1.19-10.76,3.58-2.99,2.38-4.79,5.52-5.01,9.26-.41,6.74,3.52,10.14,6.4,11.58,1.8.89,3.64,1.93,5.73,2.74l6.31,2.44c2.12.83,4.04,1.76,5.76,2.81,1.73,1.05,3.14,2.44,4.23,4.2,1.09,1.75,1.49,3.18,1.49,5.56,0,3.16-1.27,5.02-4.11,7.28-2.85,2.26-6.26,3.39-10.25,3.39-3.55,0-6.51-.83-8.87-2.48-2.36-1.65-3.89-3.62-4.6-5.91-.34-1.1-.52-2.2-.53-3.28,1.26.19,2.55-.14,3.51-1.03,1.73-1.59,1.77-4.38-.17-6.09-1.76-1.55-4.22-1.29-5.94.31-.38.35-.71.84-.95,1.44-.26.47-.42,1.03-.48,1.71-.44,4.23,1,7.93,4.31,11.09,3.31,3.16,7.83,4.74,13.57,4.74,5.2,0,9.47-1.51,12.81-4.52,3.33-3.02,5-6.4,5-10.14,0-2.53-.55-4.75-1.64-6.68Z"/>
    <path class="st0" d="M91.49,84.9c-3.19,1.67-6.62,2.44-10.3,2.3-.72,0-1.43-.03-2.13-.09-6.67,7.91-15.6,12.89-25.46,13.29-20.84-.85-37.52-22.15-37.52-48.3S32.97,4.75,54.41,4.43c17.25-.26,26.23,8.69,25.49,8.51-3.34-.8-6.59.92-7.44,3.93-.84,3.01,1.05,6.19,4.43,6.77,3.07.52,5.67-1.49,6.51-4.5.48-1.69.02-4.01-1.79-6.49-2.2-3.02-11.9-10.25-28.4-9.76C25.02,3.72,2.13,24.92,2.13,52.11s22.88,49.22,51.09,49.22h.75c15.3,0,29.02-6.48,38.38-16.74-.29.11-.58.21-.87.31Z"/>
  </g>
  <g>
    <g>
      <path class="st1" d="M148.27,64.77c-.24,0-.97.97-1.43,1.51-1.58,1.84-4.26,2.37-7.41,2.37-8.4,0-14.98-7.15-14.98-16.28,0-5.23,1.56-9.93,4.28-12.88,1.11-1.21,3.41-3.74,9.18-3.74,3.74,0,7.17,1.01,8.46,2.26.62.59,1.26,1.99,1.49,2.15.89.62,1.09-1.11,1.14-2,.05-1.02.12-1.63.16-2.03.03-.27.05-.44.05-.6,0-.43-.19-.68-.56-.74-.44-.07-.86-.13-1.27-.18-1.03-.15-2-.28-3.12-.52-2.47-.51-5.06-.57-6.06-.57-3.36,0-8.7,1.45-12.72,5.55-3.34,3.4-5.05,8-4.95,13.31.27,14.48,12.12,18.34,19.08,18.34,2.48,0,5.77-.29,7.56-1.1.81-.41.93-.56,1.19-1.5.4-1.55.41-2.03.41-2.41,0-.84-.36-.93-.51-.93Z"/>
      <path class="st1" d="M188.62,68.96c-.23,0-1.06-.02-1.86-.27-1.08-.29-2.4-1.13-4.08-5.07-2.13-5.06-6.64-16.31-9.34-23.03-1.1-2.74-1.89-4.72-2.11-5.23-.61-1.5-.84-1.83-1.29-1.83s-.71.44-1.29,1.97l-11.15,29.11c-.95,2.51-1.89,4.01-3.94,4.26-.38.05-.82.09-1.15.09-.75,0-.91.27-.91.5,0,.6.78.6,1.16.6,1.56,0,3.29-.06,4.43-.11.54-.02.95-.03,1.12-.03.21,0,.67.02,1.19.05.79.04,1.78.09,2.49.09.96,0,1.11-.38,1.11-.6,0-.5-.6-.5-.86-.5h-.44c-.74,0-1.55-.36-1.55-1.14,0-.82.24-1.91.68-3.07l2.94-8.28c.09-.22.19-.24.28-.24h11.43c.14,0,.17.02.23.14l4.57,11.53c.12.31.14.59.05.77-.07.14-.16.18-.19.19-.45.11-.52.39-.52.55,0,.47.55.5,1.46.54h.23c2.25.07,4.56.11,6.85.11.8,0,1.21-.2,1.21-.6,0-.33-.26-.5-.76-.5ZM164.65,54.1s0-.02.01-.03l4.32-12.65c.18-.51.47-.84.56-.84,0,0,.04.02.08.15l5.2,13.31s-.11.06-.21.06h-9.96Z"/>
      <path class="st1" d="M223.03,68.96c-.24,0-.81,0-1.58-.14-1.09-.2-2.8-.75-4.93-3.3-2.11-2.54-4.56-6.1-7.4-10.22l-1.05-1.52c6.54-2.2,7.93-7.15,7.93-10.95,0-3.28-1.85-5.66-2.94-6.55-2.42-1.96-8.85-2.11-10.77-2.11-.81,0-2.36.06-3.5.1-.68.02-1.22.04-1.39.04-.05,0-.25,0-.55-.02-.89-.04-2.73-.12-4.14-.12-.24,0-.89,0-.89.6,0,.29.24.5.56.5.36,0,1.05.05,1.36.13,1.16.28,1.53.83,1.61,2.47.08,1.49.08,2.81.08,10.11v8.25c0,4.58,0,8.19-.21,10.14-.18,1.44-.39,2.24-1.04,2.39-.45.11-.9.18-1.19.18-.38,0-.56.25-.56.5,0,.6.64.6.89.6,1.06,0,3.06-.1,3.72-.13h.18s.22,0,.49.01c.93.04,2.86.12,4.61.12.8,0,.89-.42.89-.6,0-.25-.17-.5-.56-.5-.35,0-1.24-.09-1.83-.19-1.03-.16-1.3-.96-1.43-2.38-.21-1.96-.21-5.57-.21-10.15v-1.12c0-.12.03-.15.06-.15l5.1.09c.15,0,.22.04.35.18.35.51.91,1.38,1.55,2.39.87,1.36,1.96,3.06,2.97,4.55l.53.78c2.08,3.1,3.45,5.15,5.14,6.17,1.15.7,2.25.92,4.55.92h2.94c.49,0,1.22,0,1.22-.6,0-.27-.27-.5-.6-.5ZM199.21,36.75c0-.18.07-.3.18-.35.37-.13,1.45-.26,2.71-.27.05,0,.1,0,.16,0,4.05,0,6.81.79,8.44,2.41,1.29,1.28,1.91,3.11,1.91,5.59,0,5.94-4.32,7.56-5.94,8.17-1.75.65-6.76.51-7.26.17-.13-.09-.19-.2-.19-.38v-15.33Z"/>
      <path class="st1" d="M238.43,34.18c-.27,0-.54,0-.79,0-1.72,0-3.53.07-4.6.11-.49.02-.84.03-.99.03-.05,0-.25,0-.55-.02-.89-.04-2.73-.12-4.14-.12-.24,0-.89,0-.89.6,0,.12.05.5.68.5.36,0,1.05.05,1.36.13,1.19.28,1.4.84,1.49,2.47.08,1.49.08,2.81.08,10.11v8.25c0,4.58,0,8.19-.21,10.14-.18,1.44-.39,2.24-1.04,2.39-.37.09-.69.14-1.11.18-.59,0-.64.39-.64.5,0,.6.64.6.89.6.29,0,.66-.02,1.05-.04.45-.03.92-.05,1.37-.05.8-.04,1.46-.05,1.65-.05.09,0,.53.04,1.09.09.61.05,1.42.12,2.33.19,2.37.19,4.32.28,5.78.28,5.31,0,9.71-1.89,12.73-5.47,2.88-3.43,4.53-8.3,4.53-13.36,0-6-2.22-9.86-4.08-12.05-4.7-5.49-11.79-5.45-16.01-5.42ZM254.34,53.11c0,4.52-1.28,8.86-3.26,11.05-2.41,2.72-5.94,4.28-9.7,4.28s-6.16-.61-6.86-1.77c-.32-.49-.39-2.64-.42-3.45-.04-.85-.08-4.97-.08-10.16v-5.81c0-3.54,0-8.39.04-9.98,0-.47.11-.6.38-.74.26-.15,1.73-.3,2.59-.3,4.88,0,9.97.39,13.85,5,.81.96,3.46,4.67,3.46,11.88Z"/>
      <path class="st1" d="M293.11,34.18c-.89,0-2.12.06-2.93.11-.38.02-.66.03-.76.03-.07,0-.29-.01-.61-.02-.91-.04-2.59-.12-4.04-.12-.25,0-.93,0-.93.6,0,.29.24.5.57.5.39,0,1.11.05,1.44.14,1.24.28,1.63.83,1.72,2.47.09,1.49.09,2.81.09,10.11v5.86c0,5.63-.75,9.03-2.5,11.34-1.59,2.03-4.17,3.29-6.72,3.29s-4.39-.42-6.48-2.51c-1.6-1.63-3.23-4.25-3.23-11.42v-6.56c0-7.3,0-8.62.09-10.11.09-1.69.45-2.31,1.44-2.46.51-.09.77-.14,1.06-.14.33,0,.58-.21.58-.5,0-.6-.67-.6-.93-.6-.86,0-2.24.06-3.26.1-.54.02-.96.04-1.09.04-.12,0-.46-.01-.92-.03-1.03-.04-2.76-.11-4.13-.11-.25,0-.93,0-.93.6,0,.29.24.5.57.5.39,0,1.11.05,1.44.14,1.24.28,1.63.83,1.72,2.47.09,1.49.09,2.81.09,10.11v6.84c0,7.54,2.08,10.63,3.89,12.48,2.93,2.95,7.03,3.39,9.21,3.39,2.35,0,5.87-.37,9.21-3.53,3.64-3.45,4.11-9.39,4.11-14.18v-5.01c0-7.3,0-8.62.09-10.11.09-1.65.43-2.22,1.44-2.46.51-.09.77-.14,1.06-.14.33,0,.57-.21.57-.5,0-.6-.67-.6-.93-.6Z"/>
      <path class="st1" d="M331.78,34.18c-.89,0-2.12.06-2.93.11-.38.02-.66.03-.76.03-.07,0-.29-.01-.61-.02-.91-.04-2.59-.12-4.04-.12-.25,0-.93,0-.93.6,0,.29.24.5.57.5.39,0,1.11.05,1.44.14,1.24.28,1.63.83,1.72,2.47.09,1.49.09,2.81.09,10.11v5.86c0,5.63-.75,9.03-2.5,11.34-1.59,2.03-4.17,3.29-6.72,3.29s-4.39-.42-6.48-2.51c-1.6-1.63-3.23-4.25-3.23-11.42v-6.56c0-7.3,0-8.62.09-10.11.09-1.69.45-2.31,1.44-2.46.51-.09.77-.14,1.06-.14.33,0,.58-.21.58-.5,0-.6-.67-.6-.93-.6-.86,0-2.24.06-3.26.1-.54.02-.96.04-1.09.04-.12,0-.46-.01-.92-.03-1.03-.04-2.76-.11-4.13-.11-.25,0-.93,0-.93.6,0,.29.24.5.58.5.39,0,1.11.05,1.44.14,1.24.28,1.63.83,1.72,2.47.09,1.49.09,2.81.09,10.11v6.84c0,7.54,2.08,10.63,3.89,12.48,2.93,2.95,7.03,3.39,9.21,3.39,2.35,0,5.87-.37,9.21-3.53,3.64-3.45,4.11-9.39,4.11-14.18v-5.01c0-7.3,0-8.62.09-10.11.09-1.63.44-2.23,1.44-2.46.51-.09.77-.14,1.06-.14.33,0,.57-.21.57-.5,0-.6-.67-.6-.93-.6Z"/>
      <path class="st1" d="M350.13,49.98l-1.63-1.03c-5.49-3.46-6.54-5.52-6.54-8.12,0-3.12,2.79-5.21,6.94-5.21,4.94,0,6.6,1.67,7.09,2.39.32.47.66,1.69.72,2.25.05.34.12.8.69.8.63,0,.63-.88.63-1.3,0-2.5.14-3.98.2-4.61.02-.18.03-.3.03-.35,0-.55-.54-.55-.81-.55-.42,0-.85-.04-1.99-.23-1.67-.32-3.4-.47-5.45-.47-7.45,0-12.27,3.4-12.27,8.66,0,3.17,1.3,6.15,7.67,10.36l2.62,1.73c5.18,3.44,6.59,5.21,6.59,8.25s-2.78,6.01-8.1,6.01c-4.53,0-7.67-1.72-8.4-4.61-.17-.63-.17-1.26-.17-1.68,0-.36-.05-.74-.63-.74s-.65.64-.69.96c-.01.14-.03.33-.05.56-.09.95-.24,2.53-.24,4.43,0,1.32.08,1.61,1.01,1.99h0c2.19.86,4.77,1.28,7.88,1.28,3.5,0,6.57-.69,8.9-2,3.73-2.13,5.06-5.52,5.06-7.97,0-3.84-2.12-6.36-9.06-10.77Z"/>
    </g>
    <g>
      <g>
        <path class="st0" d="M433.57,68.96c-.23,0-1.06-.02-1.86-.27-1.08-.29-2.4-1.13-4.08-5.07-2.14-5.08-6.66-16.35-9.36-23.08-1.09-2.71-1.87-4.66-2.08-5.17-.61-1.5-.84-1.83-1.29-1.83s-.71.44-1.29,1.97l-11.15,29.11c-.95,2.51-1.89,4.01-3.94,4.26-.38.05-.82.09-1.15.09-.75,0-.91.27-.91.5,0,.6.78.6,1.16.6,1.56,0,3.29-.06,4.43-.11.54-.02.95-.03,1.12-.03.21,0,.67.02,1.19.05.79.04,1.78.09,2.49.09.96,0,1.11-.38,1.11-.6,0-.5-.6-.5-.86-.5h-.44c-.74,0-1.55-.36-1.55-1.14,0-.82.24-1.91.67-3.07l2.94-8.28c.09-.22.2-.24.28-.24h11.43c.14,0,.17.02.23.14l4.57,11.53c.12.31.14.59.05.77-.07.14-.16.18-.19.19-.45.11-.52.39-.52.55,0,.47.55.5,1.46.54h.23c2.25.07,4.56.11,6.85.11.8,0,1.21-.2,1.21-.6,0-.33-.26-.5-.76-.5ZM419.77,54.04s-.11.06-.21.06h-9.96s0-.02.01-.03l4.32-12.65c.18-.52.47-.84.56-.84,0,0,.04.02.08.15l5.2,13.31Z"/>
        <path class="st0" d="M466.41,68.82c-1.11.03-2.8-.75-4.93-3.3-2.1-2.54-4.55-6.1-7.39-10.21l-1.05-1.53c6.54-2.2,7.93-7.15,7.93-10.95,0-3.28-1.85-5.66-2.94-6.55-2.42-1.96-8.85-2.11-10.77-2.11-.81,0-2.36.06-3.5.1-.68.02-1.22.04-1.39.04-.05,0-.25,0-.55-.02-.89-.04-2.73-.12-4.14-.12-.24,0-.89,0-.89.6,0,.29.24.5.56.5.36,0,1.05.05,1.36.13,1.17.28,1.53.83,1.61,2.47.08,1.49.08,2.81.08,10.11v8.25c0,4.58,0,8.19-.21,10.14-.18,1.44-.39,2.24-1.04,2.39-.45.11-.9.18-1.19.18-.38,0-.56.25-.56.5,0,.6.64.6.89.6,1.06,0,3.06-.1,3.72-.13h.18s.22,0,.49.01c.93.04,2.86.12,4.61.12.8,0,.89-.42.89-.6,0-.25-.17-.5-.56-.5-.35,0-1.24-.09-1.83-.19-1.03-.16-1.3-.96-1.43-2.38-.21-1.96-.21-5.57-.21-10.15v-1.12c0-.12.03-.15.06-.15l5.1.09c.15,0,.22.04.35.18.35.51.91,1.38,1.55,2.39.87,1.36,1.96,3.06,2.97,4.55l.53.78c2.08,3.1,3.45,5.15,5.14,6.17,1.15.7,2.25.92,4.55.92,0,0,2.08,0,2.26,0,1.34.06,1.34-1.28-.27-1.24ZM444.35,52.45c-.13-.09-.19-.2-.19-.38v-15.33c0-.18.07-.3.18-.35.37-.13,1.45-.26,2.71-.27.05,0,.1,0,.16,0,4.05,0,6.81.79,8.44,2.41,1.29,1.28,1.91,3.11,1.91,5.59,0,5.94-4.32,7.56-5.94,8.17-1.75.65-6.76.51-7.26.16Z"/>
      </g>
      <path class="st0" d="M481.9,68.86c-.25,0-1.17-.09-1.82-.19-1.13-.16-1.42-.96-1.56-2.38-.22-1.96-.22-5.76-.22-10.15v-8.26c0-7.31,0-8.63.09-10.12.09-1.67.45-2.26,1.48-2.46.53-.09.79-.14,1.09-.14.34,0,.59-.21.59-.51,0-.6-.69-.6-.95-.6-.97,0-2.66.07-3.68.11-.4.02-.68.03-.75.03s-.33-.01-.71-.03c-.97-.04-2.77-.11-3.85-.11-.26,0-.95,0-.95.6,0,.3.25.51.59.51.26,0,.84.04,1.35.18.88.21,1.27.91,1.36,2.42.09,1.49.09,2.81.09,10.12v8.26c0,4.4,0,8.2-.22,10.15-.18,1.39-.45,2.28-1.18,2.43-.38.09-.86.13-1.12.13-.65,0-.72.36-.72.51,0,.6.69.6.95.6.97,0,2.66-.07,3.68-.11.4-.02.68-.03.75-.03.05,0,.24,0,.54.02,1.02.04,3.15.12,5.06.12.75,0,.91-.33.91-.6,0-.12-.06-.51-.77-.51Z"/>
      <path class="st0" d="M524.18,34.05c-1.23,0-2.31.06-3.02.1-.37.02-.65.04-.82.04s-.51-.02-.97-.04c-.94-.04-2.36-.1-3.73-.1-.42,0-1.13,0-1.13.56,0,.25.15.56.86.56.27,0,1,.02,1.88.23.76.2,1.18.62,1.39,1.65.13.62.29,25.38.05,25.11-.75-.85-1.75-1.99-2.91-3.3-2.01-2.3-4.52-5.16-6.88-7.79-7-7.8-13.69-15.31-14.36-16.1-.12-.12-.25-.28-.4-.44-.61-.7-1-1.13-1.35-1.13-.62,0-.72.79-.72,2.57.02,4.3.01,5.22,0,6.75-.02,1.69-.04,4.25-.04,13.18v6.94c0,4.28-.24,5.46-1.2,5.74-.57.2-1.31.27-1.78.27-.43,0-.59.27-.59.51,0,.6.62.6.95.6,1.41,0,2.77-.07,3.58-.11.36-.02.63-.03.75-.03.11,0,.34.01.66.03.85.04,2.28.11,4.12.11.28,0,1.04,0,1.04-.6,0-.23-.15-.51-.59-.51-.12,0-1.22,0-2.19-.27-.99-.3-1.5-1.2-1.6-5.23,0,0-.19-21.39.03-21.13,2.18,2.53,6.45,7.45,10.77,12.28,4.81,5.38,11.31,12.27,11.79,12.72,2.51,2.61,2.99,3.07,3.46,3.07.57,0,.63-.37.63-3.56l.09-27.4c0-3.2.32-3.76,1.39-4,.54-.09.81-.14,1.17-.19.46-.07.69-.25.69-.55,0-.56-.68-.56-1.04-.56Z"/>
      <path class="st0" d="M393.64,64.77c-.24,0-.97.97-1.43,1.51-1.58,1.84-4.26,2.37-7.41,2.37-8.4,0-14.98-7.15-14.98-16.28,0-5.23,1.56-9.93,4.28-12.88,1.11-1.21,3.41-3.74,9.18-3.74,3.74,0,7.17,1.01,8.46,2.26.62.59,1.26,1.99,1.49,2.15.89.62,1.09-1.11,1.14-2,.05-1.02.12-1.63.16-2.03.03-.27.05-.44.05-.6,0-.43-.19-.68-.56-.74-.44-.07-.86-.13-1.27-.18-1.03-.15-2-.28-3.12-.52-2.47-.51-5.06-.57-6.06-.57-3.36,0-8.7,1.45-12.72,5.55-3.34,3.4-5.05,8-4.95,13.31.27,14.48,12.12,18.34,19.08,18.34,2.48,0,5.77-.29,7.56-1.1.81-.41.93-.56,1.19-1.5.4-1.55.41-2.03.41-2.41,0-.84-.36-.93-.51-.93Z"/>
    </g>
    <path class="st0" d="M394.11,62.47c-.24,0-.38.25-.85,1.2-.36.73-.81,1.63-1.27,2.17-1.58,1.84-4.09,2.81-7.23,2.81-8.4,0-14.98-7.15-14.98-16.28,0-5.23,1.56-9.93,4.28-12.88,1.11-1.21,3.41-3.74,9.18-3.74,3.74,0,6.84,1.35,8.14,2.61.62.59,1.15,2.13,1.49,3.14.35,1.03.46,1.34.73,1.34.53,0,.56-.66.6-1.19.02-.3.03-.69.04-1.17.02-.64.04-1.43.08-2.32.05-1.02.12-1.63.16-2.03.03-.27.05-.44.05-.6,0-.43-.19-.68-.56-.74-.44-.07-.86-.13-1.27-.18-1.03-.15-2-.28-3.12-.52-2.47-.51-5.06-.57-6.06-.57-3.36,0-8.7,1.45-12.72,5.55-3.34,3.4-5.05,8-4.95,13.31.27,14.48,12.12,18.34,19.08,18.34,2.48,0,5.77-.29,7.56-1.1.81-.41.93-.56,1.19-1.5.4-1.55.92-4.33.92-4.71,0-.84-.36-.93-.51-.93Z"/>
    <path class="st0" d="M394.11,62.47c-.24,0-.38.25-.85,1.2-.36.73-.81,1.63-1.27,2.17-1.58,1.84-4.09,2.81-7.23,2.81-8.4,0-14.98-7.15-14.98-16.28,0-5.23,1.56-9.93,4.28-12.88,1.11-1.21,3.41-3.74,9.18-3.74,3.74,0,6.84,1.35,8.14,2.61.62.59,1.15,2.13,1.49,3.14.35,1.03.46,1.34.73,1.34.53,0,.56-.66.6-1.19.02-.3.03-.69.04-1.17.02-.64.04-1.43.08-2.32.05-1.02.12-1.63.16-2.03.03-.27.05-.44.05-.6,0-.43-.19-.68-.56-.74-.44-.07-.86-.13-1.27-.18-1.03-.15-2-.28-3.12-.52-2.47-.51-5.06-.57-6.06-.57-3.36,0-8.7,1.45-12.72,5.55-3.34,3.4-5.05,8-4.95,13.31.27,14.48,12.12,18.34,19.08,18.34,2.48,0,5.77-.29,7.56-1.1.81-.41.93-.56,1.19-1.5.4-1.55.92-4.33.92-4.71,0-.84-.36-.93-.51-.93Z"/>
  </g>
</svg>