<?xml version="1.0" encoding="UTF-8"?>
<svg id="_Слой_1" data-name="Слой_1" xmlns="http://www.w3.org/2000/svg" version="1.1" viewBox="0 0 534.62 104.19">
  <!-- Generator: Adobe Illustrator 29.0.1, SVG Export Plug-In . SVG Version: 2.1.0 Build 192)  -->
  <defs>
    <style>
      .st0 {
        fill: #fff;
      }

      .st1 {
        fill: #b1824c;
      }
    </style>
  </defs>
  <g>
    <path class="st1" d="M69.91,58.4c-1.09-1.92-2.52-3.47-4.27-4.63-1.75-1.17-3.68-2.2-5.8-3.1-2.12-.9-4.23-1.75-6.35-2.55-2.12-.8-4.05-1.67-5.8-2.59-1.75-.92-3.17-2.13-4.27-3.61-1.09-1.48-1.64-3.2-1.64-5.14,0-2.68,1.07-4.99,3.21-6.93,2.14-1.95,5.18-2.92,9.12-2.92,4.67,0,7.94,1.2,9.81,3.61.94,1.2,1.53,2.46,1.8,3.77-1.63.06-3.09.93-3.79,2.4-1,2.13,0,4.73,2.44,5.58,2.21.77,4.39-.39,5.39-2.52.68-1.44.38-3.79-1.21-6.25-.66-1.22-1.61-2.37-2.85-3.44-2.82-2.43-6.69-3.65-11.6-3.65-4.18,0-7.77,1.19-10.76,3.58-2.99,2.38-4.79,5.52-5.01,9.26-.41,6.74,3.52,10.14,6.4,11.58,1.8.89,3.64,1.93,5.73,2.74l6.31,2.44c2.12.83,4.04,1.76,5.76,2.81,1.73,1.05,3.14,2.44,4.23,4.2,1.09,1.75,1.49,3.18,1.49,5.56,0,3.16-1.27,5.02-4.11,7.28-2.85,2.26-6.26,3.39-10.25,3.39-3.55,0-6.51-.83-8.87-2.48-2.36-1.65-3.89-3.62-4.6-5.91-.34-1.1-.52-2.2-.53-3.28,1.26.19,2.55-.14,3.51-1.03,1.73-1.59,1.77-4.38-.17-6.09-1.76-1.55-4.22-1.29-5.94.31-.38.35-.71.84-.95,1.44-.26.47-.42,1.03-.48,1.71-.44,4.23,1,7.93,4.31,11.09,3.31,3.16,7.83,4.74,13.57,4.74,5.2,0,9.47-1.51,12.81-4.52,3.33-3.02,5-6.4,5-10.14,0-2.53-.55-4.75-1.64-6.68Z"/>
    <path class="st0" d="M91.49,84.9c-3.19,1.67-6.62,2.44-10.3,2.3-.72,0-1.43-.03-2.13-.09-6.67,7.91-15.6,12.89-25.46,13.29-20.84-.85-37.52-22.15-37.52-48.3S32.97,4.75,54.41,4.43c17.25-.26,26.23,8.69,25.49,8.51-3.34-.8-6.59.92-7.44,3.93-.84,3.01,1.05,6.19,4.43,6.77,3.07.52,5.67-1.49,6.51-4.5.48-1.69.02-4.01-1.79-6.49-2.2-3.02-11.9-10.25-28.4-9.76C25.02,3.72,2.13,24.92,2.13,52.11s22.88,49.22,51.09,49.22h.75c15.3,0,29.02-6.48,38.38-16.74-.29.11-.58.21-.87.31Z"/>
  </g>
  <g>
    <g>
      <path class="st1" d="M148.97,62.55c-.24,0-.38.25-.86,1.21-.36.73-.82,1.65-1.28,2.19-1.6,1.85-4.11,2.83-7.28,2.83-8.46,0-15.08-7.2-15.08-16.39,0-5.27,1.57-10,4.31-12.97,1.11-1.22,3.43-3.77,9.24-3.77,3.77,0,6.89,1.36,8.2,2.63.63.6,1.15,2.14,1.51,3.16.36,1.04.46,1.35.74,1.35.53,0,.57-.67.6-1.2.02-.3.03-.7.04-1.18.02-.64.04-1.44.09-2.34.05-1.03.12-1.64.16-2.05.03-.27.05-.45.05-.61,0-.43-.19-.68-.57-.74-.44-.07-.86-.13-1.28-.19-1.03-.15-2.01-.29-3.14-.52-2.48-.52-5.09-.57-6.1-.57-3.38,0-8.77,1.46-12.81,5.58-3.36,3.42-5.09,8.06-4.99,13.4.27,14.58,12.21,18.47,19.22,18.47,2.5,0,5.81-.29,7.62-1.11.81-.41.94-.56,1.2-1.51.41-1.56.93-4.36.93-4.75,0-.84-.36-.93-.52-.93Z"/>
      <path class="st1" d="M189.09,69.08c-.24,0-1.07-.02-1.87-.28-1.08-.3-2.42-1.13-4.11-5.11-2.14-5.1-6.69-16.42-9.4-23.19-1.11-2.76-1.91-4.75-2.12-5.27-.61-1.51-.84-1.84-1.3-1.84s-.71.45-1.3,1.98l-11.23,29.31c-.95,2.52-1.91,4.04-3.97,4.29-.38.05-.82.09-1.16.09-.76,0-.92.28-.92.51,0,.6.79.6,1.17.6,1.57,0,3.31-.06,4.46-.11.55-.02.95-.04,1.13-.04.21,0,.67.02,1.2.05.8.04,1.79.09,2.51.09.97,0,1.12-.38,1.12-.6,0-.51-.61-.51-.87-.51h-.45c-.75,0-1.56-.36-1.56-1.14,0-.83.24-1.92.68-3.09l2.96-8.34c.09-.22.2-.24.29-.24h11.51c.14,0,.17.02.24.14l4.6,11.61c.12.31.14.59.05.78-.07.14-.17.18-.19.19-.45.11-.52.39-.52.55,0,.47.55.5,1.47.54h.23c2.27.07,4.59.11,6.9.11.81,0,1.21-.2,1.21-.6,0-.34-.26-.51-.77-.51ZM164.95,54.12s0-.02.01-.03l4.35-12.74c.18-.52.47-.84.56-.85,0,0,.04.02.08.15l5.23,13.4s-.11.06-.21.06h-10.03Z"/>
      <path class="st1" d="M223.75,69.08c-.24,0-.82,0-1.59-.14-1.1-.2-2.82-.76-4.96-3.32-2.12-2.56-4.59-6.14-7.45-10.29l-1.05-1.53c6.59-2.21,7.98-7.2,7.98-11.02,0-3.3-1.86-5.7-2.96-6.59-2.43-1.97-8.92-2.13-10.84-2.13-.82,0-2.38.06-3.52.1-.69.02-1.23.04-1.4.04-.05,0-.25,0-.55-.02-.89-.04-2.75-.12-4.17-.12-.24,0-.89,0-.89.6,0,.29.24.51.56.51.36,0,1.06.05,1.37.14,1.17.28,1.54.84,1.62,2.48.08,1.5.08,2.83.08,10.18v8.31c0,4.61,0,8.25-.21,10.21-.18,1.45-.39,2.26-1.04,2.4-.45.11-.9.18-1.2.18-.39,0-.56.26-.56.51,0,.6.65.6.89.6,1.06,0,3.08-.1,3.75-.13h.18s.22,0,.49.01c.93.04,2.88.12,4.65.12.81,0,.89-.42.89-.6,0-.25-.17-.51-.56-.51-.36,0-1.25-.09-1.85-.19-1.04-.16-1.31-.96-1.44-2.4-.21-1.97-.21-5.61-.21-10.22v-1.13c0-.12.03-.15.06-.15l5.14.09c.16,0,.23.04.36.18.35.52.91,1.39,1.56,2.4.88,1.37,1.98,3.08,2.99,4.58l.53.79c2.09,3.12,3.48,5.19,5.18,6.21,1.16.7,2.27.93,4.58.93h2.96c.49,0,1.23,0,1.23-.6,0-.28-.28-.51-.6-.51ZM199.75,36.64c0-.18.07-.3.18-.35.37-.13,1.46-.27,2.73-.27.05,0,.11,0,.16,0,4.08,0,6.86.79,8.5,2.42,1.3,1.29,1.93,3.13,1.93,5.63,0,5.98-4.35,7.61-5.99,8.22-1.76.66-6.8.51-7.31.17-.14-.09-.19-.21-.19-.38v-15.43Z"/>
      <path class="st1" d="M239.25,34.06c-.28,0-.54,0-.79,0-1.74,0-3.55.07-4.64.11-.49.02-.85.03-1,.03-.05,0-.25,0-.55-.02-.89-.04-2.75-.12-4.17-.12-.24,0-.89,0-.89.6,0,.12.05.51.68.51.36,0,1.06.05,1.37.14,1.19.29,1.41.84,1.5,2.48.08,1.5.08,2.83.08,10.18v8.31c0,4.61,0,8.25-.21,10.21-.18,1.45-.39,2.26-1.04,2.4-.37.09-.7.14-1.11.18-.6,0-.64.39-.64.51,0,.6.65.6.89.6.29,0,.66-.02,1.05-.04.46-.03.93-.05,1.38-.05.81-.04,1.47-.05,1.66-.05.09,0,.54.04,1.1.09.61.05,1.43.12,2.35.2,2.39.19,4.35.28,5.82.28,5.34,0,9.78-1.9,12.82-5.51,2.9-3.45,4.56-8.36,4.56-13.45,0-6.04-2.23-9.93-4.1-12.13-4.73-5.53-11.87-5.49-16.12-5.46ZM255.27,53.12c0,4.55-1.29,8.92-3.28,11.13-2.43,2.74-5.99,4.31-9.77,4.31s-6.2-.62-6.91-1.78c-.32-.49-.39-2.66-.42-3.48-.04-.85-.08-5-.08-10.23v-5.85c0-3.56,0-8.44.04-10.05,0-.48.11-.61.39-.75.26-.15,1.74-.3,2.6-.3,4.92,0,10.04.39,13.95,5.04.82.97,3.49,4.7,3.49,11.96Z"/>
      <path class="st1" d="M294.31,34.06c-.9,0-2.13.06-2.95.11-.38.02-.67.03-.77.03-.07,0-.29-.01-.62-.02-.91-.04-2.61-.12-4.07-.12-.26,0-.93,0-.93.6,0,.29.24.51.58.51.4,0,1.12.05,1.45.14,1.25.28,1.64.84,1.73,2.48.09,1.5.09,2.83.09,10.18v5.9c0,5.67-.75,9.09-2.52,11.42-1.6,2.04-4.2,3.31-6.77,3.31s-4.42-.42-6.52-2.53c-1.61-1.64-3.25-4.28-3.25-11.5v-6.61c0-7.35,0-8.68.09-10.18.09-1.7.46-2.32,1.45-2.48.52-.09.78-.14,1.07-.14.34,0,.58-.21.58-.51,0-.6-.68-.6-.93-.6-.86,0-2.26.06-3.28.1-.54.02-.96.04-1.1.04-.12,0-.46-.01-.93-.03-1.04-.04-2.78-.11-4.16-.11-.26,0-.93,0-.93.6,0,.29.24.51.58.51.4,0,1.12.05,1.45.14,1.25.28,1.64.84,1.73,2.48.09,1.5.09,2.83.09,10.18v6.89c0,7.59,2.09,10.7,3.91,12.57,2.95,2.97,7.08,3.42,9.28,3.42,2.37,0,5.91-.37,9.27-3.55,3.67-3.47,4.14-9.45,4.14-14.27v-5.05c0-7.35,0-8.68.09-10.18.09-1.66.43-2.24,1.45-2.48.52-.09.78-.14,1.07-.14.34,0,.58-.21.58-.51,0-.6-.68-.6-.93-.6Z"/>
      <path class="st1" d="M333.25,34.06c-.9,0-2.13.06-2.95.11-.38.02-.67.03-.77.03-.07,0-.29-.01-.62-.02-.91-.04-2.61-.12-4.07-.12-.26,0-.93,0-.93.6,0,.29.24.51.58.51.4,0,1.12.05,1.45.14,1.25.28,1.64.84,1.73,2.48.09,1.5.09,2.83.09,10.18v5.9c0,5.67-.75,9.09-2.52,11.42-1.6,2.04-4.2,3.31-6.77,3.31s-4.42-.42-6.52-2.53c-1.61-1.64-3.25-4.28-3.25-11.5v-6.61c0-7.35,0-8.68.09-10.18.09-1.7.46-2.32,1.45-2.48.52-.09.78-.14,1.07-.14.34,0,.58-.21.58-.51,0-.6-.68-.6-.93-.6-.86,0-2.26.06-3.28.1-.54.02-.96.04-1.1.04-.12,0-.46-.01-.93-.03-1.04-.04-2.78-.11-4.16-.11-.26,0-.93,0-.93.6,0,.29.24.51.58.51.4,0,1.12.05,1.45.14,1.25.28,1.64.84,1.73,2.48.09,1.5.09,2.83.09,10.18v6.89c0,7.59,2.09,10.7,3.91,12.57,2.95,2.97,7.08,3.42,9.28,3.42,2.37,0,5.91-.37,9.27-3.55,3.67-3.47,4.14-9.45,4.14-14.27v-5.05c0-7.35,0-8.68.09-10.18.09-1.64.44-2.24,1.45-2.48.52-.09.78-.14,1.07-.14.34,0,.58-.21.58-.51,0-.6-.68-.6-.93-.6Z"/>
      <path class="st1" d="M351.73,49.96l-1.64-1.04c-5.53-3.48-6.58-5.56-6.58-8.18,0-3.14,2.81-5.25,6.98-5.25,4.97,0,6.65,1.68,7.14,2.4.32.47.67,1.7.73,2.27.05.34.13.8.69.8.63,0,.63-.89.63-1.31,0-2.51.14-4.01.21-4.65.02-.19.03-.3.03-.36,0-.56-.55-.56-.81-.56-.43,0-.85-.04-2.01-.23-1.68-.32-3.43-.48-5.49-.48-7.51,0-12.36,3.42-12.36,8.72,0,3.2,1.31,6.19,7.72,10.43l2.64,1.75c5.21,3.46,6.64,5.25,6.64,8.31s-2.8,6.05-8.16,6.05c-4.56,0-7.72-1.74-8.46-4.65-.17-.63-.17-1.27-.17-1.69,0-.36-.05-.74-.63-.74s-.66.65-.69.96c-.01.15-.03.33-.05.56-.09.95-.24,2.55-.24,4.46,0,1.33.08,1.62,1.02,2h0c2.21.87,4.81,1.29,7.94,1.29,3.52,0,6.62-.7,8.96-2.01,3.76-2.15,5.1-5.56,5.1-8.03,0-3.87-2.13-6.4-9.13-10.84Z"/>
    </g>
    <g>
      <path class="st0" d="M532.05,33.67c-.1,0-.23.03-.41.08-.19.05-.46.11-.8.16-.72.15-1.7.23-2.92.23h-18.28c-.51,0-2.11-.1-3.28-.24-.68-.06-1.08-.26-1.37-.4-.19-.09-.33-.17-.49-.17-.3,0-.44.4-.62,1l-.02.08c-.05.21-.92,4.44-.92,4.96,0,.6.33.65.43.65.37,0,.53-.32.63-.62.13-.33.24-.64.69-1.43.61-1.04,1.53-1.35,4.07-1.4,1.02-.02,2.38-.04,3.74-.05,1.26-.01,2.53-.02,3.52-.04v19.73c0,4.61,0,8.25-.21,10.21-.18,1.45-.39,2.26-1.04,2.4-.45.11-.9.18-1.2.18-.39,0-.56.26-.56.51,0,.6.65.6.89.6.89,0,2.46-.07,3.4-.11.37-.02.63-.03.69-.03.05,0,.22,0,.49.02.93.04,2.88.12,4.64.12.81,0,.89-.42.89-.6,0-.25-.17-.51-.56-.51-.35,0-1.25-.09-1.85-.19-1.04-.16-1.31-.96-1.44-2.4-.21-1.97-.21-5.61-.21-10.22v-19.73c.85.02,1.96.03,3.06.04,1.2.01,2.41.02,3.28.05,4.15.1,4.82,1.26,4.92,2.37,0,.1.01.2.02.29,0,.07.02.15.02.25.03.47.06,1.01.56,1.01.12,0,.52-.06.52-.84,0-.19.02-.78.04-1.5.04-1.18.09-2.8.09-3.69,0-.3,0-.79-.43-.79Z"/>
      <path class="st0" d="M396.01,62.55s-.09.01-.13.03c.02-.23.04-.4.04-.45,0-.38-.08-.71-.29-.71-.25,0-.33.19-.42.71-.13.85-.67,2.93-1.54,3.96-.37.43-.8.8-1.26,1.14-1.52,1.01-3.49,1.54-5.81,1.54-8.46,0-15.08-7.2-15.08-16.39,0-5.27,1.57-10,4.31-12.97,1.11-1.22,3.43-3.77,9.24-3.77,3.22,0,5.97,1,7.52,2.08.16.13.32.26.45.39,1.09,1.04,1.75,2.97,1.75,4.81,0,.66.04.99.33.99.25,0,.33-.28.38-.99,0-.04,0-.08,0-.13.53,0,.57-.67.6-1.2.02-.3.03-.7.04-1.18.02-.64.04-1.44.09-2.34.05-1.03.12-1.64.16-2.05.03-.27.05-.45.05-.61,0-.43-.19-.68-.57-.74-.44-.07-.86-.13-1.28-.19-1.03-.15-2.01-.29-3.14-.52-2.48-.52-5.09-.57-6.1-.57-2.82,0-7.04,1.02-10.71,3.76-4.08,2.93-7.39,7.82-7.25,15.22.12,6.67,2.72,11.02,6.1,13.8,4.08,3.48,9.42,4.67,13.27,4.67,2.5,0,5.81-.29,7.62-1.11.81-.41.94-.56,1.2-1.51.41-1.56.93-4.36.93-4.75,0-.84-.36-.93-.52-.93Z"/>
      <path class="st0" d="M435.75,69.08c-.24,0-1.07-.02-1.87-.28-1.08-.3-2.42-1.13-4.11-5.11-2.15-5.11-6.71-16.46-9.43-23.24-1.09-2.73-1.88-4.7-2.1-5.21-.61-1.51-.84-1.84-1.3-1.84s-.71.45-1.3,1.98l-11.23,29.31c-.95,2.52-1.91,4.04-3.97,4.29-.38.05-.82.09-1.16.09-.76,0-.92.28-.92.51,0,.6.79.6,1.16.6,1.57,0,3.31-.06,4.46-.11.55-.02.95-.04,1.13-.04.21,0,.67.02,1.2.05.8.04,1.79.09,2.51.09.97,0,1.12-.38,1.12-.6,0-.51-.61-.51-.87-.51h-.45c-.75,0-1.56-.36-1.56-1.14,0-.83.24-1.92.68-3.09l2.96-8.34c.09-.22.2-.24.29-.24h11.51c.14,0,.17.02.24.14l4.6,11.61c.12.31.14.59.05.78-.07.14-.17.18-.19.19-.45.11-.52.39-.52.55,0,.47.55.5,1.47.54h.23c2.27.07,4.59.11,6.9.11.81,0,1.21-.2,1.21-.6,0-.34-.26-.51-.77-.51ZM421.85,54.05s-.11.06-.21.06h-10.03s0-.02.01-.03l4.35-12.74c.18-.52.47-.84.56-.85,0,0,.04.02.08.15l5.23,13.4Z"/>
      <path class="st0" d="M506.18,69.08c-.24,0-1.07-.02-1.87-.28-1.08-.3-2.42-1.13-4.11-5.11-2.15-5.11-6.71-16.46-9.43-23.24-1.09-2.73-1.88-4.7-2.1-5.21-.61-1.51-.84-1.84-1.3-1.84s-.71.45-1.3,1.98l-11.23,29.31c-.95,2.52-1.91,4.04-3.97,4.29-.29.03-.61.07-.9.09-.29-.01-.69-.04-1.17-.13-1.1-.2-2.82-.76-4.96-3.32-2.12-2.56-4.59-6.14-7.44-10.28l-1.06-1.54c6.59-2.21,7.98-7.2,7.98-11.02,0-3.3-1.86-5.7-2.96-6.59-2.43-1.97-8.92-2.13-10.84-2.13-.82,0-2.38.06-3.52.1-.69.02-1.23.04-1.4.04-.05,0-.25,0-.55-.02-.89-.04-2.75-.12-4.17-.12-.24,0-.89,0-.89.6,0,.29.24.51.56.51.36,0,1.06.05,1.37.14,1.17.28,1.54.84,1.62,2.48.08,1.5.08,2.83.08,10.18v8.31c0,4.61,0,8.25-.21,10.21-.18,1.45-.39,2.26-1.04,2.4-.45.11-.9.18-1.2.18-.39,0-.56.26-.56.51,0,.6.65.6.89.6,1.07,0,3.08-.1,3.75-.13h.18s.22,0,.49.01c.93.04,2.88.12,4.64.12.81,0,.89-.42.89-.6,0-.25-.17-.51-.56-.51-.36,0-1.25-.09-1.85-.19-1.04-.16-1.31-.96-1.44-2.4-.21-1.97-.21-5.61-.21-10.22v-1.13c0-.12.03-.15.06-.15l5.14.09c.16,0,.23.04.36.18.35.52.91,1.39,1.56,2.4.88,1.37,1.98,3.08,2.99,4.58l.53.79c2.09,3.12,3.48,5.19,5.18,6.21,1.16.7,2.27.93,4.58.93h2.96s.07,0,.11,0c.03,0,.06,0,.09,0,1.57,0,3.31-.06,4.46-.11.55-.02.95-.04,1.13-.04.21,0,.67.02,1.2.05.8.04,1.79.09,2.51.09.97,0,1.12-.38,1.12-.6,0-.51-.61-.51-.87-.51h-.45c-.75,0-1.56-.36-1.56-1.14,0-.83.24-1.92.68-3.09l2.96-8.34c.09-.22.2-.24.29-.24h11.51c.14,0,.17.02.24.14l4.6,11.61c.12.31.14.59.05.78-.07.14-.17.18-.19.19-.45.11-.52.39-.52.55,0,.47.55.5,1.47.54h.23c2.27.07,4.59.11,6.9.11.81,0,1.21-.2,1.21-.6,0-.34-.26-.51-.77-.51ZM492.29,54.05s-.11.06-.21.06h-10.03s0-.02.01-.03l4.35-12.74c.18-.52.47-.84.56-.85,0,0,.04.02.08.15l5.23,13.4ZM446.41,36.64c0-.18.07-.3.18-.35.37-.13,1.46-.27,2.73-.27.05,0,.11,0,.16,0,4.08,0,6.86.79,8.5,2.42,1.3,1.29,1.93,3.13,1.93,5.63,0,5.98-4.35,7.61-5.99,8.22-1.76.66-6.8.51-7.31.17-.14-.09-.19-.21-.19-.38v-15.43Z"/>
    </g>
  </g>
</svg>