<svg width="28" height="31" viewBox="0 0 28 31" fill="none" xmlns="http://www.w3.org/2000/svg">
<path d="M25.9 11.03H22.45C22.19 5.28997 18.36 0.719971 13.69 0.719971C9.01999 0.719971 5.18998 5.28997 4.92998 11.03H1.48L0.0199809 25.21C-0.130019 26.64 0.320002 28.05 1.26 29.09C2.13 30.05 3.29 30.58 4.54 30.58H22.83C24.08 30.58 25.25 30.05 26.11 29.09C27.04 28.05 27.5 26.64 27.35 25.21L25.89 11.03H25.9ZM13.69 2.57997C17.34 2.57997 20.34 6.30997 20.59 11.02H6.79998C7.04998 6.30997 10.04 2.57997 13.7 2.57997H13.69ZM24.73 27.83C24.22 28.39 23.55 28.7 22.83 28.7H4.54C3.82 28.7 3.15001 28.39 2.64001 27.83C2.06001 27.19 1.77999 26.3 1.86999 25.39L3.16 12.89H24.21L25.5 25.39C25.59 26.29 25.31 27.18 24.73 27.83Z" fill="white"/>
</svg>
