<?xml version="1.0" encoding="UTF-8"?>
<svg id="_Слой_1" data-name="Слой_1" xmlns="http://www.w3.org/2000/svg" version="1.1" viewBox="0 0 534.62 300">
  <!-- Generator: Adobe Illustrator 29.0.1, SVG Export Plug-In . SVG Version: 2.1.0 Build 192)  -->
  <defs>
    <style>
      .st0 {
        fill: #b1824c;
      }

      .st1 {
        fill: #163d34;
      }
    </style>
  </defs>
  <g>
    <path class="st0" d="M40.15,215.56c-.31,0-.48.32-1.09,1.55-.47.94-1.05,2.11-1.63,2.8-2.04,2.36-5.26,3.62-9.32,3.62-10.82,0-19.3-9.21-19.3-20.98,0-6.74,2.01-12.79,5.52-16.59,1.42-1.56,4.39-4.82,11.83-4.82,4.82,0,8.81,1.74,10.49,3.36.8.77,1.48,2.74,1.93,4.05.46,1.33.59,1.73.94,1.73.68,0,.73-.85.77-1.54.02-.39.04-.89.05-1.51.02-.82.05-1.84.11-2.99.06-1.32.15-2.1.21-2.62.04-.34.06-.57.06-.78,0-.55-.24-.87-.73-.95-.57-.09-1.1-.16-1.63-.24-1.32-.19-2.57-.37-4.01-.67-3.18-.66-6.52-.73-7.81-.73-4.33,0-11.22,1.87-16.39,7.15-4.3,4.38-6.51,10.31-6.38,17.14.35,18.65,15.62,23.63,24.59,23.63,3.19,0,7.43-.37,9.75-1.42,1.04-.52,1.2-.72,1.54-1.94.52-2,1.18-5.58,1.18-6.07,0-1.08-.46-1.19-.66-1.19Z"/>
    <path class="st0" d="M91.48,223.92c-.3,0-1.36-.03-2.39-.35-1.39-.38-3.1-1.45-5.25-6.54-2.74-6.52-8.56-21.01-12.03-29.67-1.42-3.53-2.44-6.08-2.71-6.74-.78-1.94-1.08-2.35-1.66-2.35s-.91.57-1.66,2.54l-14.37,37.5c-1.22,3.23-2.44,5.16-5.08,5.49-.49.06-1.05.12-1.48.12-.97,0-1.17.35-1.17.65,0,.77,1.01.77,1.49.77,2.01,0,4.24-.08,5.71-.14.7-.03,1.22-.04,1.44-.04.27,0,.86.03,1.54.06,1.02.05,2.3.12,3.21.12,1.24,0,1.43-.48,1.43-.77,0-.65-.78-.65-1.11-.65h-.57c-.96,0-1.99-.46-1.99-1.46,0-1.06.31-2.46.87-3.95l3.79-10.67c.12-.28.25-.31.37-.31h14.73c.18,0,.22.03.3.18l5.89,14.85c.16.4.18.75.06,1-.08.18-.21.24-.24.25-.58.14-.66.5-.66.7,0,.61.71.64,1.88.7h.3c2.9.09,5.87.14,8.83.14,1.03,0,1.55-.26,1.55-.77,0-.43-.33-.65-.98-.65ZM60.59,204.78s0-.03.02-.04l5.57-16.3c.23-.66.6-1.08.72-1.08,0,0,.05.03.11.2l6.7,17.15s-.14.08-.27.08h-12.83Z"/>
    <path class="st0" d="M135.82,223.92c-.31,0-1.04,0-2.03-.18-1.41-.25-3.6-.97-6.35-4.25-2.71-3.28-5.87-7.86-9.53-13.17l-1.35-1.95c8.43-2.83,10.21-9.21,10.21-14.1,0-4.22-2.38-7.29-3.79-8.44-3.12-2.52-11.41-2.72-13.88-2.72-1.04,0-3.05.07-4.51.12-.88.03-1.58.06-1.79.06-.07,0-.32-.01-.71-.03-1.14-.05-3.52-.15-5.33-.15-.31,0-1.14,0-1.14.77,0,.37.31.65.72.65.46,0,1.35.06,1.75.17,1.5.36,1.97,1.07,2.08,3.18.11,1.92.11,3.62.11,13.03v10.63c0,5.9,0,10.55-.26,13.07-.23,1.85-.5,2.89-1.33,3.08-.58.15-1.15.23-1.53.23-.49,0-.72.33-.72.65,0,.77.83.77,1.14.77,1.36,0,3.94-.13,4.79-.17h.23c.06-.01.28,0,.63.01,1.19.05,3.68.16,5.94.16,1.03,0,1.14-.54,1.14-.77,0-.32-.22-.65-.72-.65-.45,0-1.6-.12-2.36-.24-1.33-.2-1.67-1.23-1.84-3.07-.27-2.52-.27-7.18-.27-13.07v-1.45c0-.15.03-.19.08-.2l6.58.12c.2,0,.29.05.46.24.45.66,1.17,1.78,2,3.08,1.13,1.76,2.53,3.94,3.82,5.86l.68,1.01c2.68,4,4.45,6.64,6.62,7.95,1.48.9,2.91,1.19,5.87,1.19h3.79c.63,0,1.57,0,1.57-.77,0-.35-.35-.65-.77-.65ZM105.12,182.42c0-.23.08-.38.23-.45.48-.16,1.86-.34,3.49-.35.07,0,.13,0,.2,0,5.22,0,8.78,1.01,10.87,3.1,1.66,1.65,2.47,4.01,2.47,7.2,0,7.65-5.56,9.74-7.66,10.52-2.25.84-8.71.65-9.35.21-.17-.12-.25-.26-.25-.49v-19.75Z"/>
    <path class="st0" d="M155.67,179.11c-.35,0-.69,0-1.02,0-2.22,0-4.54.09-5.93.14-.63.02-1.08.04-1.28.04-.07,0-.32-.01-.71-.03-1.14-.05-3.52-.15-5.33-.15-.31,0-1.14,0-1.14.77,0,.15.06.65.88.65.46,0,1.35.06,1.75.17,1.53.37,1.81,1.08,1.92,3.18.11,1.92.11,3.62.11,13.03v10.63c0,5.9,0,10.55-.26,13.07-.23,1.85-.5,2.89-1.33,3.08-.48.12-.9.18-1.43.23-.76,0-.82.5-.82.65,0,.77.83.77,1.14.77.38,0,.85-.03,1.35-.05.58-.03,1.18-.07,1.76-.07,1.03-.06,1.89-.06,2.12-.06.12,0,.69.05,1.4.11.78.07,1.83.16,3.01.25,3.06.24,5.56.36,7.45.36,6.84,0,12.51-2.44,16.41-7.05,3.71-4.42,5.84-10.69,5.84-17.21,0-7.73-2.86-12.71-5.25-15.53-6.06-7.08-15.18-7.02-20.63-6.99ZM176.16,203.49c0,5.82-1.65,11.41-4.2,14.24-3.1,3.51-7.66,5.52-12.5,5.52s-7.93-.79-8.84-2.28c-.41-.63-.5-3.4-.54-4.45-.05-1.09-.11-6.4-.11-13.09v-7.49c0-4.56,0-10.81.05-12.86,0-.61.14-.78.5-.96.34-.19,2.22-.39,3.33-.39,6.29,0,12.85.5,17.85,6.45,1.05,1.24,4.46,6.01,4.46,15.31Z"/>
    <path class="st0" d="M226.11,179.11c-1.15,0-2.73.08-3.77.14-.49.03-.85.04-.98.04-.09,0-.37-.01-.79-.03-1.17-.05-3.34-.15-5.21-.15-.33,0-1.19,0-1.19.77,0,.38.31.65.74.65.51,0,1.43.06,1.86.17,1.6.36,2.09,1.07,2.21,3.18.11,1.92.11,3.62.11,13.03v7.55c0,7.26-.96,11.63-3.22,14.62-2.05,2.61-5.37,4.24-8.66,4.24s-5.65-.54-8.34-3.24c-2.06-2.09-4.16-5.48-4.16-14.71v-8.45c0-9.41,0-11.1.11-13.03.12-2.17.58-2.97,1.86-3.17.66-.12.99-.18,1.37-.18.43,0,.74-.27.74-.65,0-.77-.87-.77-1.19-.77-1.1,0-2.89.07-4.2.13-.69.03-1.23.05-1.41.05-.16,0-.59-.02-1.19-.04-1.33-.05-3.55-.14-5.32-.14-.33,0-1.19,0-1.19.77,0,.38.31.65.74.65.51,0,1.43.06,1.86.17,1.6.36,2.1,1.07,2.21,3.18.11,1.92.11,3.62.11,13.03v8.82c0,9.71,2.68,13.7,5.01,16.08,3.78,3.8,9.06,4.37,11.87,4.37,3.03,0,7.56-.47,11.86-4.55,4.7-4.45,5.3-12.1,5.3-18.26v-6.46c0-9.41,0-11.1.11-13.03.11-2.12.55-2.86,1.86-3.17.66-.12.99-.18,1.36-.18.43,0,.74-.27.74-.65,0-.77-.87-.77-1.19-.77Z"/>
    <path class="st0" d="M275.94,179.11c-1.15,0-2.73.08-3.77.14-.49.03-.85.04-.98.04-.09,0-.37-.01-.79-.03-1.17-.05-3.34-.15-5.21-.15-.33,0-1.19,0-1.19.77,0,.38.31.65.74.65.51,0,1.43.06,1.86.17,1.6.36,2.09,1.07,2.21,3.18.11,1.92.11,3.62.11,13.03v7.55c0,7.26-.96,11.63-3.22,14.62-2.05,2.61-5.37,4.24-8.66,4.24s-5.65-.54-8.34-3.24c-2.06-2.09-4.16-5.48-4.16-14.71v-8.45c0-9.41,0-11.1.11-13.03.12-2.17.58-2.97,1.86-3.17.66-.12.99-.18,1.36-.18.43,0,.74-.27.74-.65,0-.77-.87-.77-1.19-.77-1.1,0-2.89.07-4.19.13-.69.03-1.23.05-1.41.05-.16,0-.59-.02-1.19-.04-1.33-.05-3.55-.14-5.32-.14-.33,0-1.19,0-1.19.77,0,.38.31.65.74.65.51,0,1.43.06,1.86.17,1.6.36,2.1,1.07,2.21,3.18.11,1.92.11,3.62.11,13.03v8.82c0,9.71,2.68,13.7,5.01,16.08,3.78,3.8,9.06,4.37,11.87,4.37,3.03,0,7.56-.47,11.86-4.55,4.7-4.45,5.3-12.1,5.3-18.26v-6.46c0-9.41,0-11.1.11-13.03.11-2.1.57-2.87,1.86-3.17.66-.12.99-.18,1.36-.18.43,0,.74-.27.74-.65,0-.77-.87-.77-1.19-.77Z"/>
    <path class="st0" d="M299.59,199.46l-2.1-1.33c-7.08-4.45-8.42-7.11-8.42-10.46,0-4.02,3.59-6.72,8.94-6.72,6.36,0,8.51,2.15,9.14,3.07.41.6.85,2.18.93,2.9.07.43.16,1.03.88,1.03.81,0,.81-1.13.81-1.68,0-3.22.18-5.13.26-5.95.02-.24.04-.39.04-.46,0-.71-.7-.71-1.04-.71-.54,0-1.09-.05-2.57-.3-2.15-.42-4.38-.61-7.03-.61-9.61,0-15.81,4.38-15.81,11.16,0,4.09,1.68,7.93,9.88,13.34l3.37,2.23c6.67,4.43,8.5,6.72,8.5,10.63s-3.58,7.74-10.44,7.74c-5.84,0-9.88-2.22-10.82-5.95-.22-.81-.22-1.62-.22-2.16,0-.46-.06-.95-.81-.95s-.84.83-.89,1.23c-.01.19-.04.43-.07.72-.12,1.22-.31,3.26-.31,5.71,0,1.7.1,2.08,1.31,2.56h0c2.83,1.11,6.15,1.65,10.15,1.65,4.5,0,8.47-.89,11.47-2.57,4.81-2.75,6.52-7.11,6.52-10.27,0-4.95-2.73-8.19-11.68-13.87Z"/>
  </g>
  <g>
    <path class="st1" d="M143.37,296.9c-.83-.42-1.51-1.03-2.03-1.81l1.07-1.22c.94,1.4,2.17,2.1,3.69,2.1,2.12,0,3.18-1.25,3.18-3.76v-10.36h-6.25v-1.56h8.04v11.85c0,1.79-.42,3.14-1.26,4.04-.84.9-2.08,1.36-3.73,1.36-.98,0-1.88-.21-2.71-.64Z"/>
    <path class="st1" d="M190.56,295.82v1.56h-12.09v-17.1h11.72v1.56h-9.92v6.08h8.84v1.54h-8.84v6.35h10.28Z"/>
    <path class="st1" d="M240.02,280.29l-5.76,17.1h-1.91l-5.01-14.58-5.03,14.58h-1.88l-5.76-17.1h1.86l4.93,14.7,5.1-14.7h1.69l5.03,14.78,5.01-14.78h1.73Z"/>
    <path class="st1" d="M277.39,295.82v1.56h-12.09v-17.1h11.72v1.56h-9.92v6.08h8.84v1.54h-8.84v6.35h10.28Z"/>
    <path class="st1" d="M303.63,280.29h1.81v15.53h9.57v1.56h-11.38v-17.1Z"/>
    <path class="st1" d="M351.67,297.39l-3.91-5.5c-.44.05-.9.07-1.37.07h-4.59v5.42h-1.81v-17.1h6.4c2.18,0,3.89.52,5.13,1.56,1.24,1.04,1.86,2.48,1.86,4.3,0,1.34-.34,2.46-1.01,3.38-.68.92-1.64,1.58-2.89,1.99l4.18,5.86h-1.98ZM350.23,289.3c.9-.75,1.34-1.8,1.34-3.15s-.45-2.45-1.34-3.19c-.9-.74-2.19-1.11-3.88-1.11h-4.54v8.57h4.54c1.69,0,2.99-.37,3.88-1.12Z"/>
    <path class="st1" d="M385.26,291.48v5.91h-1.78v-5.91l-6.84-11.19h1.93l5.86,9.6,5.86-9.6h1.81l-6.84,11.19Z"/>
  </g>
  <g>
    <path class="st0" d="M295.52,73.01c-1.39-2.44-3.2-4.4-5.42-5.88-2.22-1.48-4.68-2.8-7.37-3.94-2.69-1.14-5.38-2.22-8.06-3.24-2.69-1.02-5.14-2.12-7.37-3.29-2.22-1.17-4.03-2.7-5.42-4.59-1.39-1.88-2.09-4.06-2.09-6.53,0-3.4,1.36-6.33,4.08-8.8,2.72-2.47,6.58-3.71,11.58-3.71,5.93,0,10.09,1.53,12.46,4.59,1.19,1.53,1.95,3.12,2.28,4.78-2.06.08-3.93,1.18-4.81,3.05-1.27,2.7,0,6,3.1,7.08,2.81.98,5.58-.5,6.85-3.2.86-1.82.48-4.82-1.53-7.94-.84-1.55-2.04-3.01-3.62-4.37-3.58-3.09-8.49-4.63-14.73-4.63-5.31,0-9.87,1.51-13.67,4.54-3.8,3.03-6.08,7.01-6.37,11.76-.52,8.56,4.47,12.88,8.13,14.7,2.28,1.14,4.62,2.46,7.27,3.48l8.02,3.1c2.69,1.05,5.13,2.24,7.32,3.57,2.19,1.33,3.98,3.1,5.37,5.33,1.39,2.22,1.89,4.04,1.89,7.07,0,4.02-1.61,6.37-5.23,9.24-3.61,2.87-7.95,4.31-13.02,4.31-4.51,0-8.26-1.05-11.26-3.15-3-2.1-4.94-4.6-5.84-7.51-.43-1.4-.65-2.79-.68-4.16,1.61.25,3.24-.18,4.46-1.31,2.19-2.02,2.25-5.56-.21-7.73-2.24-1.97-5.36-1.63-7.55.39-.49.45-.9,1.07-1.2,1.83-.33.59-.54,1.31-.61,2.18-.56,5.37,1.27,10.07,5.47,14.09,4.2,4.02,9.95,6.02,17.24,6.02,6.61,0,12.03-1.92,16.26-5.75,4.23-3.83,6.35-8.12,6.35-12.88,0-3.21-.69-6.04-2.09-8.48Z"/>
    <path class="st1" d="M322.92,106.66c-4.05,2.13-8.41,3.1-13.08,2.92-.91,0-1.81-.04-2.7-.11-8.47,10.04-19.81,16.37-32.34,16.88-26.47-1.08-47.66-28.13-47.66-61.34s21.46-60.15,48.68-60.56c21.91-.33,33.32,11.04,32.38,10.81-4.24-1.02-8.37,1.17-9.44,4.99-1.07,3.82,1.33,7.87,5.63,8.6,3.9.67,7.2-1.89,8.27-5.71.6-2.15.02-5.09-2.27-8.25-2.79-3.84-15.11-13.02-36.07-12.4-35.82,1.06-64.89,27.99-64.89,62.52s29.05,62.52,64.89,62.52h.96c19.43,0,36.86-8.23,48.75-21.26-.37.14-.73.27-1.11.39Z"/>
  </g>
  <g>
    <path class="st1" d="M530.32,178.62c-.13,0-.29.04-.53.1-.25.06-.58.14-1.03.21-.92.2-2.18.3-3.73.3h-23.39c-.65,0-2.7-.13-4.2-.3-.87-.07-1.38-.33-1.75-.51-.24-.12-.43-.21-.63-.21-.39,0-.56.51-.79,1.28l-.03.1c-.06.27-1.18,5.68-1.18,6.34,0,.77.42.83.55.83.48,0,.68-.4.81-.79.16-.42.31-.82.89-1.82.78-1.33,1.95-1.73,5.21-1.79,1.31-.03,3.05-.05,4.79-.06,1.62-.01,3.23-.03,4.5-.05v25.25c0,5.9,0,10.55-.26,13.07-.23,1.85-.5,2.89-1.33,3.08-.58.15-1.16.23-1.53.23-.49,0-.72.33-.72.65,0,.77.83.77,1.14.77,1.14,0,3.15-.09,4.35-.14.47-.02.81-.04.88-.04.06,0,.28,0,.63.02,1.19.05,3.68.16,5.94.16,1.03,0,1.14-.54,1.14-.77,0-.32-.22-.65-.72-.65-.45,0-1.6-.12-2.36-.24-1.33-.2-1.67-1.23-1.84-3.07-.27-2.52-.27-7.18-.27-13.07v-25.25c1.09.03,2.5.04,3.92.05,1.54.02,3.08.03,4.2.06,5.32.12,6.16,1.62,6.29,3.03,0,.13.01.25.03.37.01.09.02.19.02.31.04.61.08,1.3.71,1.3.16,0,.66-.08.66-1.07,0-.25.02-.99.05-1.92.05-1.51.11-3.59.11-4.72,0-.38,0-1.01-.56-1.01Z"/>
    <path class="st1" d="M356.25,215.56c-.06,0-.11.02-.17.04.03-.3.05-.51.05-.58,0-.48-.11-.91-.37-.91-.32,0-.43.24-.53.91-.16,1.09-.85,3.74-1.98,5.07-.47.55-1.02,1.03-1.61,1.45-1.94,1.29-4.46,1.97-7.44,1.97-10.82,0-19.3-9.21-19.3-20.98,0-6.74,2.01-12.79,5.52-16.59,1.42-1.56,4.39-4.82,11.83-4.82,4.13,0,7.64,1.28,9.62,2.66.21.16.41.33.58.49,1.39,1.33,2.24,3.8,2.24,6.16,0,.85.05,1.27.43,1.27.32,0,.43-.36.48-1.27,0-.05,0-.11,0-.17.68,0,.73-.85.77-1.54.02-.39.04-.89.05-1.51.02-.82.05-1.84.11-2.99.06-1.32.15-2.1.21-2.62.04-.34.06-.57.06-.78,0-.55-.24-.87-.73-.95-.57-.09-1.1-.16-1.63-.24-1.32-.19-2.57-.37-4.01-.67-3.18-.66-6.52-.73-7.81-.73-3.61,0-9,1.31-13.7,4.81-5.22,3.75-9.45,10.01-9.28,19.48.16,8.53,3.48,14.1,7.81,17.66,5.21,4.46,12.05,5.97,16.99,5.97,3.19,0,7.43-.37,9.75-1.42,1.04-.52,1.2-.72,1.54-1.94.52-2,1.18-5.58,1.18-6.07,0-1.08-.46-1.19-.66-1.19Z"/>
    <path class="st1" d="M407.09,223.92c-.3,0-1.36-.03-2.39-.35-1.39-.38-3.1-1.45-5.25-6.54-2.75-6.54-8.58-21.06-12.06-29.74-1.4-3.49-2.41-6.01-2.68-6.67-.78-1.94-1.08-2.35-1.66-2.35s-.91.57-1.66,2.54l-14.37,37.5c-1.22,3.23-2.44,5.16-5.08,5.49-.49.06-1.05.12-1.48.12-.97,0-1.17.35-1.17.65,0,.77,1.01.77,1.49.77,2.01,0,4.24-.08,5.71-.14.7-.03,1.22-.04,1.44-.04.27,0,.86.03,1.54.06,1.02.05,2.3.12,3.21.12,1.24,0,1.43-.48,1.43-.77,0-.65-.78-.65-1.11-.65h-.57c-.96,0-1.99-.46-1.99-1.46,0-1.06.31-2.46.87-3.95l3.79-10.67c.12-.28.25-.31.37-.31h14.73c.18,0,.22.03.3.18l5.89,14.85c.16.4.18.75.06,1-.08.18-.21.24-.24.25-.58.14-.66.5-.66.7,0,.61.71.64,1.88.7h.3c2.9.09,5.87.14,8.83.14,1.03,0,1.55-.26,1.55-.77,0-.43-.33-.65-.98-.65ZM389.31,204.7s-.14.08-.27.08h-12.83s0-.03.02-.04l5.57-16.3c.23-.66.6-1.08.72-1.08,0,0,.05.03.11.2l6.7,17.15Z"/>
    <path class="st1" d="M497.22,223.92c-.3,0-1.36-.03-2.39-.35-1.39-.38-3.1-1.45-5.25-6.54-2.75-6.54-8.58-21.06-12.06-29.74-1.4-3.49-2.41-6.01-2.68-6.67-.78-1.94-1.08-2.35-1.66-2.35s-.91.57-1.66,2.54l-14.37,37.5c-1.22,3.23-2.44,5.16-5.08,5.49-.37.04-.78.09-1.15.11-.38-.02-.89-.06-1.5-.17-1.41-.25-3.6-.97-6.35-4.25-2.71-3.28-5.87-7.85-9.52-13.16l-1.36-1.97c8.43-2.83,10.21-9.21,10.21-14.1,0-4.22-2.38-7.29-3.79-8.44-3.12-2.52-11.41-2.72-13.88-2.72-1.04,0-3.05.07-4.51.12-.88.03-1.58.06-1.79.06-.07,0-.32-.01-.7-.03-1.14-.05-3.52-.15-5.33-.15-.31,0-1.14,0-1.14.77,0,.37.31.65.72.65.46,0,1.35.06,1.75.17,1.5.36,1.97,1.07,2.08,3.18.11,1.92.11,3.62.11,13.03v10.63c0,5.9,0,10.55-.27,13.07-.23,1.85-.5,2.89-1.33,3.08-.58.15-1.15.23-1.53.23-.49,0-.72.33-.72.65,0,.77.83.77,1.14.77,1.36,0,3.95-.13,4.8-.17h.23c.06-.01.29,0,.63.01,1.19.05,3.68.16,5.94.16,1.03,0,1.14-.54,1.14-.77,0-.32-.22-.65-.72-.65-.45,0-1.6-.12-2.36-.24-1.33-.2-1.67-1.23-1.84-3.07-.26-2.52-.26-7.18-.26-13.07v-1.45c0-.15.03-.19.08-.2l6.58.12c.2,0,.29.05.46.24.45.66,1.17,1.78,2,3.08,1.13,1.76,2.53,3.94,3.82,5.86l.68,1.01c2.68,4,4.45,6.64,6.62,7.95,1.48.9,2.9,1.19,5.87,1.19h3.79s.09,0,.14,0c.04,0,.08,0,.11,0,2.01,0,4.24-.08,5.71-.14.7-.03,1.22-.04,1.44-.04.27,0,.86.03,1.54.06,1.02.05,2.3.12,3.21.12,1.24,0,1.43-.48,1.43-.77,0-.65-.78-.65-1.11-.65h-.57c-.96,0-1.99-.46-1.99-1.46,0-1.06.31-2.46.87-3.95l3.79-10.67c.12-.28.25-.31.37-.31h14.73c.18,0,.22.03.3.18l5.89,14.85c.16.4.18.75.06,1-.09.18-.21.24-.24.25-.58.14-.66.5-.66.7,0,.61.71.64,1.88.7h.3c2.9.09,5.87.14,8.83.14,1.03,0,1.55-.26,1.55-.77,0-.43-.33-.65-.98-.65ZM479.44,204.7s-.14.08-.27.08h-12.83s0-.03.02-.04l5.57-16.3c.23-.66.6-1.08.72-1.08,0,0,.05.03.11.2l6.7,17.15ZM420.73,182.42c0-.23.08-.38.23-.45.48-.16,1.86-.34,3.49-.35.07,0,.13,0,.2,0,5.22,0,8.78,1.01,10.87,3.1,1.66,1.65,2.47,4.01,2.47,7.2,0,7.66-5.56,9.74-7.66,10.52-2.25.84-8.7.65-9.35.21-.17-.12-.25-.26-.25-.49v-19.75Z"/>
  </g>
</svg>