<?xml version="1.0" encoding="UTF-8"?>
<svg id="_Слой_1" data-name="Слой_1" xmlns="http://www.w3.org/2000/svg" version="1.1" viewBox="0 0 534.62 300">
  <!-- Generator: Adobe Illustrator 29.1.0, SVG Export Plug-In . SVG Version: 2.1.0 Build 142)  -->
  <defs>
    <style>
      .st0 {
        fill: #fff;
      }

      .st1 {
        fill: #b1824c;
      }
    </style>
  </defs>
  <g>
    <path class="st0" d="M158.99,279c-.73-.37-1.32-.9-1.78-1.59l.94-1.07c.83,1.23,1.91,1.84,3.24,1.84,1.86,0,2.79-1.1,2.79-3.3v-9.09h-5.49v-1.37h7.06v10.4c0,1.57-.37,2.76-1.1,3.55-.74.79-1.83,1.19-3.27,1.19-.86,0-1.65-.19-2.38-.56Z"/>
    <path class="st0" d="M200.43,278.05v1.37h-10.62v-15.01h10.3v1.37h-8.71v5.34h7.76v1.35h-7.76v5.58h9.03Z"/>
    <path class="st0" d="M243.87,264.41l-5.06,15.01h-1.67l-4.4-12.8-4.42,12.8h-1.65l-5.06-15.01h1.63l4.33,12.91,4.48-12.91h1.48l4.42,12.98,4.4-12.98h1.52Z"/>
    <path class="st0" d="M276.68,278.05v1.37h-10.62v-15.01h10.3v1.37h-8.71v5.34h7.76v1.35h-7.76v5.58h9.03Z"/>
    <path class="st0" d="M299.72,264.41h1.59v13.64h8.41v1.37h-10v-15.01Z"/>
    <path class="st0" d="M341.91,279.42l-3.43-4.83c-.39.04-.79.06-1.2.06h-4.03v4.76h-1.59v-15.01h5.62c1.92,0,3.42.46,4.5,1.37,1.09.92,1.63,2.17,1.63,3.77,0,1.17-.3,2.16-.89,2.97-.59.81-1.44,1.39-2.54,1.75l3.67,5.15h-1.74ZM340.64,272.33c.79-.66,1.18-1.58,1.18-2.77s-.39-2.15-1.18-2.8c-.79-.65-1.92-.98-3.41-.98h-3.99v7.53h3.99c1.49,0,2.62-.33,3.41-.99Z"/>
    <path class="st0" d="M371.4,274.23v5.19h-1.57v-5.19l-6.01-9.82h1.69l5.15,8.43,5.15-8.43h1.59l-6.01,9.82Z"/>
  </g>
  <g>
    <path class="st1" d="M292.59,82.4c-1.22-2.14-2.81-3.87-4.76-5.17-1.95-1.3-4.11-2.45-6.47-3.46-2.36-1-4.72-1.95-7.08-2.85-2.36-.9-4.52-1.86-6.47-2.89-1.95-1.03-3.54-2.37-4.76-4.03-1.22-1.65-1.83-3.57-1.83-5.74,0-2.98,1.19-5.56,3.58-7.73,2.39-2.17,5.78-3.26,10.17-3.26,5.21,0,8.86,1.34,10.95,4.03,1.04,1.34,1.71,2.74,2,4.2-1.81.07-3.45,1.04-4.22,2.68-1.12,2.37,0,5.27,2.72,6.22,2.47.86,4.9-.44,6.01-2.81.76-1.6.42-4.23-1.35-6.97-.73-1.36-1.79-2.64-3.18-3.84-3.15-2.71-7.46-4.07-12.94-4.07-4.67,0-8.67,1.33-12,3.99-3.34,2.66-5.34,6.15-5.59,10.32-.46,7.51,3.92,11.31,7.14,12.91,2,1,4.06,2.16,6.39,3.05l7.04,2.73c2.36.92,4.5,1.97,6.43,3.13,1.93,1.17,3.5,2.73,4.72,4.68,1.22,1.95,1.66,3.55,1.66,6.2,0,3.53-1.42,5.59-4.59,8.12-3.17,2.52-6.99,3.78-11.43,3.78-3.96,0-7.26-.92-9.89-2.77-2.63-1.84-4.34-4.04-5.13-6.59-.38-1.23-.58-2.45-.59-3.65,1.41.22,2.84-.16,3.92-1.15,1.93-1.78,1.98-4.89-.19-6.79-1.96-1.73-4.7-1.43-6.63.34-.43.39-.79.94-1.06,1.6-.29.52-.47,1.15-.54,1.91-.49,4.72,1.11,8.84,4.8,12.37,3.69,3.53,8.73,5.29,15.14,5.29,5.81,0,10.57-1.68,14.28-5.05,3.72-3.36,5.57-7.13,5.57-11.31,0-2.82-.61-5.3-1.83-7.45Z"/>
    <path class="st0" d="M316.65,111.94c-3.55,1.87-7.38,2.72-11.49,2.57-.8,0-1.59-.03-2.37-.1-7.44,8.82-17.4,14.38-28.4,14.83-23.24-.95-41.85-24.7-41.85-53.87s18.84-52.82,42.75-53.18c19.24-.29,29.26,9.69,28.43,9.49-3.72-.89-7.35,1.02-8.29,4.38-.94,3.36,1.17,6.91,4.95,7.55,3.43.58,6.32-1.66,7.26-5.01.53-1.89.02-4.47-1.99-7.24-2.45-3.37-13.27-11.44-31.67-10.89-31.46.93-56.98,24.58-56.98,54.9s25.51,54.9,56.98,54.9h.84c17.06,0,32.37-7.22,42.81-18.67-.32.12-.64.24-.97.34Z"/>
  </g>
  <g>
    <g>
      <path class="st1" d="M69.75,210.18c-.27,0-1.1,1.1-1.62,1.71-1.79,2.08-4.82,2.68-8.38,2.68-9.5,0-16.95-8.09-16.95-18.42,0-5.92,1.77-11.23,4.85-14.57,1.25-1.37,3.85-4.23,10.38-4.23,4.23,0,8.11,1.14,9.58,2.56.7.67,1.43,2.25,1.68,2.43,1,.71,1.23-1.25,1.29-2.26.06-1.16.13-1.85.18-2.3.03-.3.05-.5.05-.68,0-.48-.21-.76-.64-.83-.5-.08-.97-.14-1.43-.21-1.16-.16-2.26-.32-3.53-.58-2.79-.58-5.72-.64-6.85-.64-3.8,0-9.85,1.64-14.39,6.27-3.78,3.85-5.71,9.05-5.6,15.05.31,16.38,13.72,20.75,21.59,20.75,2.8,0,6.52-.33,8.56-1.25.91-.46,1.05-.63,1.35-1.7.46-1.76.46-2.3.46-2.73,0-.95-.41-1.05-.58-1.05Z"/>
      <path class="st1" d="M115.41,214.91c-.26,0-1.2-.02-2.1-.31-1.22-.33-2.72-1.27-4.61-5.74-2.41-5.73-7.52-18.45-10.57-26.05-1.24-3.1-2.14-5.34-2.38-5.92-.69-1.7-.95-2.07-1.46-2.07s-.8.5-1.46,2.23l-12.62,32.93c-1.07,2.84-2.14,4.53-4.46,4.82-.43.05-.93.1-1.3.1-.85,0-1.03.31-1.03.57,0,.68.88.68,1.31.68,1.77,0,3.72-.07,5.01-.12.61-.02,1.07-.04,1.27-.04.24,0,.76.03,1.35.06.9.05,2.02.1,2.82.1,1.09,0,1.25-.42,1.25-.68,0-.57-.68-.57-.98-.57h-.5c-.84,0-1.75-.4-1.75-1.28,0-.93.27-2.16.76-3.47l3.33-9.37c.1-.25.22-.27.32-.27h12.93c.16,0,.19.03.27.16l5.17,13.04c.14.35.16.66.06.88-.07.16-.19.21-.21.22-.51.12-.58.44-.58.62,0,.53.62.56,1.65.61h.26c2.55.08,5.15.12,7.75.12.91,0,1.36-.23,1.36-.68,0-.38-.29-.57-.86-.57ZM88.29,198.1s0-.02.01-.04l4.89-14.32c.2-.58.53-.95.63-.95,0,0,.04.03.09.17l5.88,15.06s-.12.07-.24.07h-11.27Z"/>
      <path class="st1" d="M154.35,214.91c-.27,0-.92,0-1.78-.16-1.24-.22-3.16-.85-5.57-3.73-2.38-2.88-5.16-6.9-8.37-11.56l-1.18-1.72c7.4-2.49,8.97-8.09,8.97-12.38,0-3.71-2.09-6.4-3.33-7.41-2.74-2.22-10.02-2.39-12.18-2.39-.92,0-2.68.06-3.96.11-.77.03-1.38.05-1.58.05-.06,0-.28,0-.62-.02-1-.04-3.09-.13-4.68-.13-.27,0-1,0-1,.68,0,.33.27.57.63.57.41,0,1.19.05,1.54.15,1.32.32,1.73.94,1.82,2.79.09,1.69.09,3.18.09,11.44v9.33c0,5.18,0,9.27-.23,11.48-.2,1.63-.44,2.54-1.17,2.7-.51.13-1.01.2-1.35.2-.43,0-.63.29-.63.57,0,.68.73.68,1,.68,1.2,0,3.46-.11,4.21-.15h.2c.05,0,.25,0,.55.01,1.05.04,3.23.14,5.22.14.91,0,1-.47,1-.68,0-.28-.19-.57-.63-.57-.4,0-1.41-.1-2.07-.21-1.17-.18-1.47-1.08-1.62-2.69-.23-2.21-.23-6.3-.23-11.48v-1.27c0-.13.03-.16.07-.17l5.77.11c.17,0,.25.04.4.21.4.58,1.03,1.56,1.75,2.7.99,1.54,2.22,3.46,3.36,5.15l.6.89c2.35,3.51,3.91,5.83,5.82,6.98,1.3.79,2.55,1.04,5.15,1.04h3.33c.55,0,1.38,0,1.38-.68,0-.31-.31-.57-.67-.57ZM127.39,178.47c0-.2.07-.34.2-.4.42-.14,1.64-.3,3.06-.3.06,0,.12,0,.18,0,4.58,0,7.71.89,9.55,2.72,1.46,1.45,2.17,3.52,2.17,6.32,0,6.72-4.89,8.55-6.72,9.24-1.98.74-7.64.57-8.21.19-.15-.1-.22-.23-.22-.43v-17.34Z"/>
      <path class="st1" d="M171.77,175.56c-.31,0-.61,0-.89,0-1.95,0-3.99.08-5.21.12-.55.02-.95.04-1.12.04-.06,0-.28,0-.62-.02-1-.04-3.09-.13-4.68-.13-.27,0-1,0-1,.68,0,.13.06.57.77.57.41,0,1.19.05,1.54.15,1.34.32,1.59.95,1.68,2.79.09,1.69.09,3.18.09,11.44v9.33c0,5.18,0,9.27-.23,11.48-.2,1.63-.44,2.54-1.17,2.7-.42.11-.79.16-1.25.2-.67,0-.72.44-.72.57,0,.68.73.68,1,.68.33,0,.74-.02,1.19-.05.51-.03,1.04-.06,1.55-.06.91-.05,1.66-.05,1.86-.05.11,0,.6.04,1.23.1.69.06,1.61.14,2.64.22,2.69.21,4.89.32,6.54.32,6,0,10.99-2.14,14.41-6.19,3.26-3.88,5.13-9.39,5.13-15.12,0-6.79-2.51-11.16-4.61-13.63-5.32-6.21-13.33-6.17-18.11-6.14ZM189.77,196.98c0,5.11-1.45,10.02-3.69,12.51-2.73,3.08-6.73,4.85-10.98,4.85s-6.97-.69-7.76-2.01c-.36-.55-.44-2.99-.48-3.9-.04-.96-.09-5.62-.09-11.49v-6.58c0-4,0-9.49.05-11.29,0-.54.12-.68.43-.84.3-.17,1.95-.34,2.92-.34,5.52,0,11.28.44,15.67,5.66.92,1.09,3.92,5.28,3.92,13.44Z"/>
      <path class="st1" d="M233.63,175.57c-1.01,0-2.4.07-3.31.12-.43.02-.75.04-.86.04-.08,0-.33-.01-.69-.03-1.02-.05-2.93-.13-4.58-.13-.29,0-1.05,0-1.05.68,0,.33.27.57.65.57.44,0,1.26.05,1.63.15,1.4.32,1.84.94,1.94,2.79.1,1.69.1,3.18.1,11.44v6.63c0,6.38-.85,10.21-2.83,12.84-1.8,2.3-4.72,3.72-7.61,3.72s-4.97-.48-7.33-2.84c-1.81-1.84-3.66-4.81-3.66-12.92v-7.42c0-8.26,0-9.75.1-11.44.1-1.91.51-2.61,1.63-2.79.58-.1.87-.16,1.2-.16.38,0,.65-.24.65-.57,0-.68-.76-.68-1.05-.68-.97,0-2.54.07-3.68.11-.61.03-1.08.05-1.24.05-.14,0-.52-.02-1.05-.04-1.17-.05-3.12-.12-4.67-.12-.29,0-1.05,0-1.05.68,0,.33.27.57.65.57.45,0,1.26.05,1.63.15,1.4.32,1.84.94,1.94,2.79.1,1.69.1,3.18.1,11.44v7.74c0,8.53,2.35,12.03,4.4,14.12,3.32,3.34,7.95,3.84,10.42,3.84,2.66,0,6.64-.41,10.42-3.99,4.12-3.9,4.65-10.62,4.65-16.04v-5.67c0-8.26,0-9.75.1-11.44.1-1.86.48-2.51,1.63-2.79.58-.1.87-.16,1.2-.16.38,0,.65-.24.65-.57,0-.68-.76-.68-1.05-.68Z"/>
      <path class="st1" d="M277.39,175.57c-1.01,0-2.4.07-3.31.12-.43.02-.75.04-.86.04-.08,0-.33-.01-.69-.03-1.02-.05-2.93-.13-4.58-.13-.29,0-1.05,0-1.05.68,0,.33.27.57.65.57.44,0,1.26.05,1.63.15,1.4.32,1.84.94,1.94,2.79.1,1.69.1,3.18.1,11.44v6.63c0,6.38-.85,10.22-2.83,12.84-1.8,2.3-4.72,3.72-7.61,3.72s-4.97-.48-7.33-2.84c-1.81-1.84-3.66-4.81-3.66-12.92v-7.42c0-8.26,0-9.75.1-11.44.1-1.91.51-2.61,1.63-2.79.58-.1.87-.16,1.2-.16.38,0,.65-.24.65-.57,0-.68-.76-.68-1.05-.68-.97,0-2.54.07-3.68.11-.61.03-1.08.05-1.24.05-.14,0-.52-.02-1.05-.04-1.17-.05-3.12-.12-4.67-.12-.29,0-1.05,0-1.05.68,0,.33.27.57.65.57.44,0,1.26.05,1.63.15,1.4.32,1.84.94,1.94,2.79.1,1.69.1,3.18.1,11.44v7.74c0,8.53,2.35,12.03,4.4,14.12,3.32,3.34,7.95,3.84,10.42,3.84,2.66,0,6.64-.41,10.42-3.99,4.12-3.9,4.65-10.62,4.65-16.04v-5.67c0-8.26,0-9.75.1-11.44.1-1.84.5-2.52,1.63-2.79.58-.1.87-.16,1.2-.16.38,0,.65-.24.65-.57,0-.68-.76-.68-1.05-.68Z"/>
      <path class="st1" d="M298.15,193.44l-1.84-1.17c-6.22-3.91-7.39-6.24-7.39-9.19,0-3.53,3.15-5.9,7.85-5.9,5.59,0,7.47,1.89,8.02,2.7.36.53.75,1.91.82,2.55.06.38.14.9.78.9.71,0,.71-.99.71-1.47,0-2.82.16-4.5.23-5.22.02-.21.03-.34.03-.4,0-.62-.62-.62-.91-.62-.48,0-.96-.04-2.26-.26-1.89-.36-3.85-.53-6.17-.53-8.43,0-13.88,3.85-13.88,9.8,0,3.59,1.48,6.96,8.67,11.72l2.96,1.96c5.86,3.89,7.46,5.9,7.46,9.33s-3.15,6.8-9.16,6.8c-5.13,0-8.68-1.95-9.5-5.22-.19-.71-.19-1.42-.19-1.9,0-.4-.06-.84-.71-.84s-.74.72-.78,1.08c-.01.16-.03.38-.06.63-.1,1.07-.27,2.86-.27,5.01,0,1.5.09,1.83,1.15,2.25h0c2.48.98,5.4,1.45,8.92,1.45,3.96,0,7.44-.78,10.07-2.26,4.22-2.41,5.73-6.24,5.73-9.02,0-4.35-2.4-7.2-10.25-12.18Z"/>
    </g>
    <g>
      <g>
        <path class="st0" d="M392.56,214.91c-.26,0-1.2-.02-2.1-.31-1.22-.33-2.72-1.27-4.61-5.74-2.42-5.74-7.53-18.5-10.59-26.12-1.23-3.06-2.12-5.28-2.36-5.85-.69-1.7-.95-2.07-1.46-2.07s-.8.5-1.46,2.23l-12.62,32.93c-1.07,2.84-2.14,4.53-4.46,4.82-.43.05-.93.1-1.3.1-.85,0-1.03.31-1.03.57,0,.68.88.68,1.31.68,1.77,0,3.72-.07,5.01-.12.61-.02,1.07-.04,1.27-.04.24,0,.76.03,1.35.06.9.05,2.02.1,2.82.1,1.09,0,1.25-.42,1.25-.68,0-.57-.68-.57-.98-.57h-.5c-.84,0-1.75-.4-1.75-1.28,0-.93.27-2.16.76-3.47l3.33-9.37c.1-.25.22-.27.32-.27h12.93c.16,0,.19.03.27.16l5.17,13.04c.14.35.16.66.06.88-.07.16-.19.21-.21.22-.51.12-.58.44-.58.62,0,.53.62.56,1.65.61h.26c2.55.08,5.15.12,7.75.12.91,0,1.36-.23,1.36-.68,0-.38-.29-.57-.86-.57ZM376.94,198.03s-.12.07-.24.07h-11.27s0-.02.01-.04l4.89-14.32c.2-.58.53-.95.63-.95,0,0,.04.03.09.17l5.88,15.06Z"/>
        <path class="st0" d="M429.71,214.76c-1.26.03-3.16-.85-5.57-3.73-2.38-2.88-5.15-6.9-8.36-11.55l-1.19-1.73c7.4-2.49,8.97-8.09,8.97-12.38,0-3.71-2.09-6.4-3.33-7.41-2.74-2.22-10.02-2.39-12.18-2.39-.92,0-2.68.06-3.96.11-.77.03-1.38.05-1.58.05-.06,0-.28,0-.62-.02-1-.04-3.09-.13-4.68-.13-.27,0-1,0-1,.68,0,.33.27.57.63.57.41,0,1.19.05,1.54.15,1.32.32,1.73.94,1.82,2.79.09,1.69.09,3.18.09,11.44v9.33c0,5.18,0,9.27-.23,11.48-.2,1.63-.44,2.54-1.17,2.7-.51.13-1.01.2-1.35.2-.43,0-.63.29-.63.57,0,.68.73.68,1,.68,1.2,0,3.47-.11,4.21-.15h.2c.05,0,.25,0,.55.01,1.05.04,3.23.14,5.22.14.91,0,1-.47,1-.68,0-.28-.19-.57-.63-.57-.4,0-1.41-.1-2.07-.21-1.17-.18-1.47-1.08-1.62-2.69-.23-2.21-.23-6.3-.23-11.48v-1.27c0-.13.03-.16.07-.17l5.77.11c.17,0,.25.04.4.21.4.58,1.03,1.56,1.75,2.7.99,1.54,2.22,3.46,3.36,5.15l.6.89c2.35,3.51,3.91,5.83,5.82,6.98,1.3.79,2.55,1.04,5.15,1.04,0,0,2.35,0,2.56,0,1.52.07,1.52-1.45-.31-1.4ZM404.76,196.24c-.15-.1-.22-.23-.22-.43v-17.34c0-.2.07-.34.2-.4.42-.14,1.64-.3,3.06-.3.06,0,.12,0,.18,0,4.58,0,7.71.89,9.55,2.72,1.46,1.45,2.17,3.52,2.17,6.32,0,6.72-4.89,8.55-6.73,9.24-1.98.74-7.64.57-8.21.19Z"/>
      </g>
      <path class="st0" d="M447.23,214.8c-.28,0-1.33-.1-2.06-.21-1.28-.18-1.61-1.08-1.77-2.69-.25-2.21-.25-6.51-.25-11.49v-9.34c0-8.27,0-9.76.1-11.45.1-1.88.51-2.56,1.68-2.79.6-.1.9-.16,1.23-.16.39,0,.67-.24.67-.58,0-.68-.78-.68-1.08-.68-1.09,0-3.01.08-4.16.13-.45.02-.77.03-.84.03s-.37-.01-.8-.03c-1.1-.05-3.14-.13-4.35-.13-.29,0-1.08,0-1.08.68,0,.33.28.58.67.58.3,0,.95.04,1.52.21,1,.24,1.44,1.03,1.54,2.74.1,1.69.1,3.18.1,11.45v9.34c0,4.98,0,9.27-.25,11.48-.21,1.57-.5,2.58-1.33,2.75-.43.1-.97.15-1.27.15-.74,0-.82.4-.82.58,0,.68.78.68,1.07.68,1.09,0,3.01-.08,4.16-.13.45-.02.77-.03.84-.03.06,0,.28,0,.61.02,1.16.04,3.56.14,5.72.14.85,0,1.02-.37,1.02-.68,0-.14-.06-.58-.87-.58Z"/>
      <path class="st0" d="M495.07,175.42c-1.39,0-2.61.07-3.42.12-.42.02-.74.04-.92.04s-.57-.02-1.09-.04c-1.07-.05-2.67-.12-4.22-.12-.48,0-1.28,0-1.28.63,0,.29.17.63.97.63.31,0,1.13.03,2.13.26.86.23,1.33.7,1.57,1.87.15.7.33,28.72.06,28.42-.85-.96-1.98-2.25-3.29-3.74-2.28-2.6-5.12-5.84-7.79-8.81-7.92-8.83-15.49-17.33-16.24-18.21-.13-.14-.28-.31-.45-.5-.69-.79-1.13-1.28-1.53-1.28-.7,0-.82.9-.82,2.91.02,4.87.01,5.91,0,7.64-.02,1.92-.05,4.81-.05,14.92v7.86c0,4.85-.28,6.18-1.36,6.5-.65.22-1.49.3-2.01.3-.49,0-.67.31-.67.58,0,.68.7.68,1.08.68,1.59,0,3.13-.08,4.05-.12.41-.02.71-.04.85-.04.13,0,.38.01.75.03.96.05,2.58.13,4.67.13.32,0,1.18,0,1.18-.68,0-.27-.17-.58-.67-.58-.14,0-1.39,0-2.48-.31-1.12-.34-1.7-1.35-1.81-5.92,0,0-.22-24.2.03-23.91,2.46,2.86,7.3,8.43,12.18,13.9,5.45,6.09,12.79,13.88,13.33,14.39,2.84,2.95,3.39,3.48,3.91,3.48.64,0,.72-.41.72-4.03l.1-31c0-3.62.36-4.25,1.57-4.52.61-.11.91-.16,1.32-.21.52-.08.78-.29.78-.63,0-.63-.77-.63-1.18-.63Z"/>
      <path class="st0" d="M347.38,210.18c-.27,0-1.1,1.1-1.62,1.71-1.79,2.08-4.82,2.68-8.38,2.68-9.5,0-16.95-8.09-16.95-18.42,0-5.92,1.77-11.23,4.85-14.57,1.25-1.37,3.85-4.23,10.38-4.23,4.23,0,8.11,1.14,9.58,2.56.7.67,1.43,2.25,1.68,2.43,1,.71,1.23-1.25,1.29-2.26.06-1.16.13-1.85.18-2.3.03-.3.05-.5.05-.68,0-.48-.21-.76-.64-.83-.5-.08-.97-.14-1.43-.21-1.16-.16-2.26-.32-3.53-.58-2.79-.58-5.72-.64-6.85-.64-3.8,0-9.85,1.64-14.39,6.27-3.78,3.85-5.71,9.05-5.6,15.05.31,16.38,13.72,20.75,21.59,20.75,2.8,0,6.52-.33,8.56-1.25.91-.46,1.05-.63,1.35-1.7.46-1.76.46-2.3.46-2.73,0-.95-.41-1.05-.58-1.05Z"/>
    </g>
    <path class="st0" d="M347.91,207.57c-.27,0-.43.28-.96,1.36-.41.82-.92,1.85-1.44,2.46-1.79,2.08-4.62,3.17-8.18,3.17-9.5,0-16.95-8.09-16.95-18.42,0-5.92,1.77-11.23,4.85-14.57,1.25-1.37,3.85-4.23,10.38-4.23,4.23,0,7.74,1.53,9.21,2.95.7.67,1.3,2.41,1.69,3.55.4,1.17.52,1.52.83,1.52.59,0,.64-.75.67-1.35.02-.34.03-.79.05-1.32.02-.72.04-1.62.1-2.63.06-1.16.13-1.85.18-2.3.03-.3.05-.5.05-.68,0-.48-.21-.76-.64-.83-.5-.08-.97-.14-1.43-.21-1.16-.16-2.26-.32-3.53-.58-2.79-.58-5.72-.64-6.85-.64-3.8,0-9.85,1.64-14.39,6.27-3.78,3.85-5.71,9.05-5.6,15.05.31,16.38,13.72,20.75,21.59,20.75,2.8,0,6.52-.33,8.56-1.25.91-.46,1.05-.63,1.35-1.7.46-1.76,1.04-4.9,1.04-5.33,0-.95-.41-1.05-.58-1.05Z"/>
    <path class="st0" d="M347.91,207.57c-.27,0-.43.28-.96,1.36-.41.82-.92,1.85-1.44,2.46-1.79,2.08-4.62,3.17-8.18,3.17-9.5,0-16.95-8.09-16.95-18.42,0-5.92,1.77-11.23,4.85-14.57,1.25-1.37,3.85-4.23,10.38-4.23,4.23,0,7.74,1.53,9.21,2.95.7.67,1.3,2.41,1.69,3.55.4,1.17.52,1.52.83,1.52.59,0,.64-.75.67-1.35.02-.34.03-.79.05-1.32.02-.72.04-1.62.1-2.63.06-1.16.13-1.85.18-2.3.03-.3.05-.5.05-.68,0-.48-.21-.76-.64-.83-.5-.08-.97-.14-1.43-.21-1.16-.16-2.26-.32-3.53-.58-2.79-.58-5.72-.64-6.85-.64-3.8,0-9.85,1.64-14.39,6.27-3.78,3.85-5.71,9.05-5.6,15.05.31,16.38,13.72,20.75,21.59,20.75,2.8,0,6.52-.33,8.56-1.25.91-.46,1.05-.63,1.35-1.7.46-1.76,1.04-4.9,1.04-5.33,0-.95-.41-1.05-.58-1.05Z"/>
  </g>
</svg>