<?xml version="1.0" encoding="UTF-8"?>
<svg id="_Слой_1" data-name="Слой_1" xmlns="http://www.w3.org/2000/svg" version="1.1" viewBox="0 0 96.24 103.15">
  <!-- Generator: Adobe Illustrator 29.1.0, SVG Export Plug-In . SVG Version: 2.1.0 Build 142)  -->
  <defs>
    <style>
      .st0 {
        fill: #fff;
      }

      .st1 {
        fill: #b1824c;
      }
    </style>
  </defs>
  <path class="st1" d="M70.79,58.1c-1.09-1.92-2.52-3.47-4.27-4.63-1.75-1.17-3.68-2.2-5.8-3.1-2.12-.9-4.23-1.75-6.35-2.55-2.12-.8-4.05-1.67-5.8-2.59-1.75-.92-3.17-2.13-4.27-3.61-1.09-1.48-1.64-3.2-1.64-5.14,0-2.68,1.07-4.99,3.21-6.93,2.14-1.95,5.18-2.92,9.12-2.92,4.67,0,7.94,1.2,9.81,3.61.94,1.2,1.53,2.46,1.8,3.77-1.63.06-3.09.93-3.79,2.4-1,2.13,0,4.73,2.44,5.58,2.21.77,4.39-.39,5.39-2.52.68-1.44.38-3.79-1.21-6.25-.66-1.22-1.61-2.37-2.85-3.44-2.82-2.43-6.69-3.65-11.6-3.65-4.18,0-7.77,1.19-10.76,3.58-2.99,2.38-4.79,5.52-5.01,9.26-.41,6.74,3.52,10.14,6.4,11.58,1.8.89,3.64,1.93,5.73,2.74l6.31,2.44c2.12.83,4.04,1.76,5.76,2.81,1.73,1.05,3.14,2.44,4.23,4.2,1.09,1.75,1.49,3.18,1.49,5.56,0,3.16-1.27,5.02-4.11,7.28-2.85,2.26-6.26,3.39-10.25,3.39-3.55,0-6.51-.83-8.87-2.48-2.36-1.65-3.89-3.62-4.6-5.91-.34-1.1-.52-2.2-.53-3.28,1.26.19,2.55-.14,3.51-1.03,1.73-1.59,1.77-4.38-.17-6.09-1.76-1.55-4.22-1.29-5.94.31-.38.35-.71.84-.95,1.44-.26.47-.42,1.03-.48,1.71-.44,4.23,1,7.93,4.31,11.09,3.31,3.16,7.83,4.74,13.57,4.74,5.2,0,9.47-1.51,12.81-4.52,3.33-3.02,5-6.4,5-10.14,0-2.53-.55-4.75-1.64-6.68Z"/>
  <path class="st0" d="M92.37,84.59c-3.19,1.67-6.62,2.44-10.3,2.3-.72,0-1.43-.03-2.13-.09-6.67,7.91-15.6,12.89-25.46,13.29-20.84-.85-37.52-22.15-37.52-48.3S33.85,4.44,55.29,4.12c17.25-.26,26.23,8.69,25.49,8.51-3.34-.8-6.59.92-7.44,3.93-.84,3.01,1.05,6.19,4.43,6.77,3.07.52,5.67-1.49,6.51-4.5.48-1.69.02-4.01-1.79-6.49-2.2-3.02-11.9-10.25-28.4-9.76C25.9,3.41,3.01,24.62,3.01,51.8s22.88,49.22,51.09,49.22h.75c15.3,0,29.02-6.48,38.38-16.74-.29.11-.58.21-.87.31Z"/>
</svg>