<svg width="28" height="29" viewBox="0 0 28 29" fill="none" xmlns="http://www.w3.org/2000/svg">
<path d="M26.41 20.42C25.9 19.92 25.39 19.41 24.89 18.9C24.26 18.26 23.62 17.63 22.98 17C22.07 16.12 21.02 15.9 19.92 16.38C19.46 16.58 19.05 16.93 18.75 17.2C18.25 17.66 17.78 18.14 17.32 18.62L16.94 18.99C16.78 18.9 16.62 18.81 16.46 18.73C16.23 18.61 16 18.48 15.78 18.34C14.5 17.52 13.3 16.51 12.12 15.24C11.17 14.22 10.11 12.98 9.38001 11.46C9.35001 11.4 9.35001 11.38 9.35001 11.38C9.35001 11.38 9.35001 11.36 9.41001 11.3L9.80001 10.92C10.36 10.37 10.94 9.80999 11.47 9.20999C12.5 8.06999 12.49 6.56 11.46 5.44C10.82 4.75 10.14 4.07 9.49001 3.42C9.10001 3.03 8.71 2.64 8.33 2.25C7.78 1.68 7.11 1.06 6.14 0.869995H6.12H5.37C4.67 1.01 4.07 1.34 3.56 1.83C2.85 2.53 2.15001 3.23 1.46001 3.93C0.61001 4.79 0.160008 5.89 0.130008 7.17C0.110008 8.32 0.309997 9.50999 0.759997 10.8C2.08 14.64 4.4 18.14 7.84 21.51C9.87 23.49 12.24 25.17 14.89 26.49C17.03 27.56 18.76 28.1 20.48 28.23C20.68 28.25 20.87 28.25 21.05 28.25C22.28 28.25 23.26 27.9 24.04 27.19C24.95 26.36 25.81 25.47 26.59 24.62C27.76 23.35 27.69 21.65 26.4 20.38L26.41 20.42ZM9.91001 8.26C9.29001 8.89 8.65 9.50999 8 10.14C7.37 10.75 7.28 11.25 7.64 12.05C8.46 13.87 9.73001 15.36 10.74 16.46C12.17 18.01 13.64 19.22 15.21 20.16C15.57 20.38 15.93 20.56 16.36 20.78C16.99 21.1 17.56 21.01 18.07 20.5C18.43 20.14 18.79 19.78 19.15 19.42L20.02 18.55C20.13 18.44 20.24 18.33 20.37 18.24C20.83 17.9 21.29 17.93 21.67 18.3C23.08 19.68 24.22 20.82 25.25 21.89C25.74 22.39 25.75 22.91 25.27 23.42C24.52 24.24 23.75 25.02 22.99 25.76C22.49 26.25 21.86 26.48 20.98 26.46C19.69 26.41 18.36 26.08 16.92 25.44C11.43 23.01 7.06001 18.99 3.96001 13.51C3.04001 11.89 2.44 10.34 2.12 8.75C1.95 7.92 1.84001 7.03 2.19001 6.19C2.33001 5.85 2.56 5.49 2.84 5.19C3.47 4.51 4.15 3.84999 4.81 3.20999L4.87 3.14999C5.32 2.71999 5.70001 2.61 6.13001 2.81C6.29001 2.89 6.47 3.02 6.65 3.2C7.47 4.01 8.29001 4.82999 9.10001 5.64999L9.92 6.46999C10.55 7.14999 10.55 7.62 9.92 8.27L9.91001 8.26Z" fill="white"/>
</svg>
